<?xml version="1.0" encoding="UTF-8" standalone="no"?>
<!DOCTYPE svg PUBLIC "-//W3C//DTD SVG 1.1//EN"
 "http://www.w3.org/Graphics/SVG/1.1/DTD/svg11.dtd">
<!-- Generated by graphviz version 2.28.0 (20120525.0300)
 -->
<!-- Title: distribute&#45;central Pages: 1 -->
<svg width="248pt" height="72pt"
 viewBox="0.00 0.00 248.47 72.00" xmlns="http://www.w3.org/2000/svg" xmlns:xlink="http://www.w3.org/1999/xlink">
<g id="graph1" class="graph" transform="scale(0.705882 0.705882) rotate(0) translate(4 98)">
<title>distribute&#45;central</title>
<!-- database -->
<g id="node1" class="node"><title>database</title>
<ellipse fill="#f7e8b5" stroke="black" cx="48" cy="-47" rx="47.2526" ry="47.2526"/>
<text text-anchor="start" x="35.5" y="-49.9" font-family="Arial" font-size="14.00">visit</text>
<text text-anchor="start" x="19" y="-35.9" font-family="Arial" font-size="14.00">database</text>
</g>
<!-- iudex&#45;worker&#45;1 -->
<g id="node2" class="node"><title>iudex&#45;worker&#45;1</title>
<polygon fill="#f7e8b5" stroke="black" points="344,-92 208,-92 208,-56 344,-56 344,-92"/>
<text text-anchor="middle" x="276" y="-69.4" font-family="Arial" font-size="14.00">iudex&#45;worker&#45;1</text>
</g>
<!-- iudex&#45;worker&#45;1&#45;&gt;database -->
<g id="edge2" class="edge"><title>iudex&#45;worker&#45;1&#45;&gt;database</title>
<path fill="none" stroke="black" d="M199.604,-64.9925C168.02,-61.2192 132.011,-56.9173 103.125,-53.4663"/>
<polygon fill="black" stroke="black" points="199.529,-67.8034 207.804,-65.9722 200.193,-62.2429 199.529,-67.8034"/>
<polygon fill="black" stroke="black" points="103.452,-50.6855 95.1763,-52.5166 102.788,-56.246 103.452,-50.6855"/>
<text text-anchor="middle" x="117.27" y="-61.6224" font-family="Arial" font-size="14.00">all</text>
<text text-anchor="middle" x="185.71" y="-47.6664" font-family="Arial" font-size="14.00">hash&#45;1</text>
</g>
<!-- iudex&#45;worker&#45;2 -->
<g id="node3" class="node"><title>iudex&#45;worker&#45;2</title>
<polygon fill="#f7e8b5" stroke="black" points="344,-38 208,-38 208,-2 344,-2 344,-38"/>
<text text-anchor="middle" x="276" y="-15.4" font-family="Arial" font-size="14.00">iudex&#45;worker&#45;2</text>
</g>
<!-- iudex&#45;worker&#45;2&#45;&gt;database -->
<g id="edge4" class="edge"><title>iudex&#45;worker&#45;2&#45;&gt;database</title>
<path fill="none" stroke="black" d="M199.604,-29.0075C168.02,-32.7808 132.011,-37.0827 103.125,-40.5337"/>
<polygon fill="black" stroke="black" points="200.193,-31.7571 207.804,-28.0278 199.529,-26.1966 200.193,-31.7571"/>
<polygon fill="black" stroke="black" points="102.788,-37.754 95.1763,-41.4834 103.452,-43.3145 102.788,-37.754"/>
<text text-anchor="middle" x="119.877" y="-44.9986" font-family="Arial" font-size="14.00">all</text>
<text text-anchor="middle" x="183.103" y="-15.3126" font-family="Arial" font-size="14.00">hash&#45;2</text>
</g>
</g>
</svg>
