<?xml version="1.0" encoding="UTF-8" standalone="no"?>
<!DOCTYPE svg PUBLIC "-//W3C//DTD SVG 1.1//EN"
 "http://www.w3.org/Graphics/SVG/1.1/DTD/svg11.dtd">
<!-- Generated by graphviz version 2.28.0 (20120525.0300)
 -->
<!-- Title: iudex&#45;da&#45;gems Pages: 1 -->
<svg width="374pt" height="146pt"
 viewBox="0.00 0.00 374.00 145.89" xmlns="http://www.w3.org/2000/svg" xmlns:xlink="http://www.w3.org/1999/xlink">
<g id="graph1" class="graph" transform="scale(0.578947 0.578947) rotate(0) translate(4 248)">
<title>iudex&#45;da&#45;gems</title>
<!-- iudex&#45;da -->
<g id="node1" class="node"><title>iudex&#45;da</title>
<polygon fill="#f7e8b5" stroke="#f7e8b5" points="85.5,-144 12.5,-144 0.5,-132 0.5,-120 12.5,-108 85.5,-108 97.5,-120 97.5,-132 85.5,-144"/>
<path fill="#f7e8b5" stroke="#f7e8b5" d="M12.5,-144C6.5,-144 0.5,-138 0.5,-132"/>
<path fill="#f7e8b5" stroke="#f7e8b5" d="M0.5,-120C0.5,-114 6.5,-108 12.5,-108"/>
<path fill="#f7e8b5" stroke="#f7e8b5" d="M85.5,-108C91.5,-108 97.5,-114 97.5,-120"/>
<path fill="#f7e8b5" stroke="#f7e8b5" d="M97.5,-132C97.5,-138 91.5,-144 85.5,-144"/>
<polyline fill="none" stroke="black" points="85.5,-144 12.5,-144 "/>
<path fill="none" stroke="black" d="M12.5,-144C6.5,-144 0.5,-138 0.5,-132"/>
<polyline fill="none" stroke="black" points="0.5,-132 0.5,-120 "/>
<path fill="none" stroke="black" d="M0.5,-120C0.5,-114 6.5,-108 12.5,-108"/>
<polyline fill="none" stroke="black" points="12.5,-108 85.5,-108 "/>
<path fill="none" stroke="black" d="M85.5,-108C91.5,-108 97.5,-114 97.5,-120"/>
<polyline fill="none" stroke="black" points="97.5,-120 97.5,-132 "/>
<path fill="none" stroke="black" d="M97.5,-132C97.5,-138 91.5,-144 85.5,-144"/>
<text text-anchor="middle" x="49" y="-121.4" font-family="Arial" font-size="14.00">iudex&#45;da</text>
</g>
<!-- activerecord -->
<g id="node3" class="node"><title>activerecord</title>
<polygon fill="#f7e8b5" stroke="#f7e8b5" points="315,-240 219,-240 207,-228 207,-216 219,-204 315,-204 327,-216 327,-228 315,-240"/>
<path fill="#f7e8b5" stroke="#f7e8b5" d="M219,-240C213,-240 207,-234 207,-228"/>
<path fill="#f7e8b5" stroke="#f7e8b5" d="M207,-216C207,-210 213,-204 219,-204"/>
<path fill="#f7e8b5" stroke="#f7e8b5" d="M315,-204C321,-204 327,-210 327,-216"/>
<path fill="#f7e8b5" stroke="#f7e8b5" d="M327,-228C327,-234 321,-240 315,-240"/>
<polyline fill="none" stroke="black" points="315,-240 219,-240 "/>
<path fill="none" stroke="black" d="M219,-240C213,-240 207,-234 207,-228"/>
<polyline fill="none" stroke="black" points="207,-228 207,-216 "/>
<path fill="none" stroke="black" d="M207,-216C207,-210 213,-204 219,-204"/>
<polyline fill="none" stroke="black" points="219,-204 315,-204 "/>
<path fill="none" stroke="black" d="M315,-204C321,-204 327,-210 327,-216"/>
<polyline fill="none" stroke="black" points="327,-216 327,-228 "/>
<path fill="none" stroke="black" d="M327,-228C327,-234 321,-240 315,-240"/>
<text text-anchor="middle" x="267" y="-217.4" font-family="Arial" font-size="14.00">activerecord</text>
</g>
<!-- iudex&#45;da&#45;&gt;activerecord -->
<g id="edge2" class="edge"><title>iudex&#45;da&#45;&gt;activerecord</title>
<path fill="none" stroke="black" d="M70.7792,-144.049C87.023,-157.331 110.687,-174.932 134,-186 153.729,-195.366 176.312,-202.648 197.155,-208.135"/>
<polygon fill="black" stroke="black" points="196.355,-211.543 206.909,-210.608 198.075,-204.758 196.355,-211.543"/>
</g>
<!-- jdbc&#45;postgres -->
<g id="node6" class="node"><title>jdbc&#45;postgres</title>
<polygon fill="#f7e8b5" stroke="#f7e8b5" points="589.5,-190 484.5,-190 472.5,-178 472.5,-166 484.5,-154 589.5,-154 601.5,-166 601.5,-178 589.5,-190"/>
<path fill="#f7e8b5" stroke="#f7e8b5" d="M484.5,-190C478.5,-190 472.5,-184 472.5,-178"/>
<path fill="#f7e8b5" stroke="#f7e8b5" d="M472.5,-166C472.5,-160 478.5,-154 484.5,-154"/>
<path fill="#f7e8b5" stroke="#f7e8b5" d="M589.5,-154C595.5,-154 601.5,-160 601.5,-166"/>
<path fill="#f7e8b5" stroke="#f7e8b5" d="M601.5,-178C601.5,-184 595.5,-190 589.5,-190"/>
<polyline fill="none" stroke="black" points="589.5,-190 484.5,-190 "/>
<path fill="none" stroke="black" d="M484.5,-190C478.5,-190 472.5,-184 472.5,-178"/>
<polyline fill="none" stroke="black" points="472.5,-178 472.5,-166 "/>
<path fill="none" stroke="black" d="M472.5,-166C472.5,-160 478.5,-154 484.5,-154"/>
<polyline fill="none" stroke="black" points="484.5,-154 589.5,-154 "/>
<path fill="none" stroke="black" d="M589.5,-154C595.5,-154 601.5,-160 601.5,-166"/>
<polyline fill="none" stroke="black" points="601.5,-166 601.5,-178 "/>
<path fill="none" stroke="black" d="M601.5,-178C601.5,-184 595.5,-190 589.5,-190"/>
<text text-anchor="middle" x="537" y="-167.4" font-family="Arial" font-size="14.00">jdbc&#45;postgres</text>
</g>
<!-- iudex&#45;da&#45;&gt;jdbc&#45;postgres -->
<g id="edge5" class="edge"><title>iudex&#45;da&#45;&gt;jdbc&#45;postgres</title>
<path fill="none" stroke="black" d="M97.8619,-143.781C109.534,-147.448 122.092,-150.844 134,-153 247.238,-173.502 381.169,-175.488 462.293,-174.297"/>
<polygon fill="black" stroke="black" points="462.466,-177.794 472.406,-174.127 462.349,-170.795 462.466,-177.794"/>
</g>
<!-- activerecord&#45;jdbcpostgresql&#45;adapter -->
<g id="node8" class="node"><title>activerecord&#45;jdbcpostgresql&#45;adapter</title>
<polygon fill="#f7e8b5" stroke="#f7e8b5" points="387.5,-144 146.5,-144 134.5,-132 134.5,-120 146.5,-108 387.5,-108 399.5,-120 399.5,-132 387.5,-144"/>
<path fill="#f7e8b5" stroke="#f7e8b5" d="M146.5,-144C140.5,-144 134.5,-138 134.5,-132"/>
<path fill="#f7e8b5" stroke="#f7e8b5" d="M134.5,-120C134.5,-114 140.5,-108 146.5,-108"/>
<path fill="#f7e8b5" stroke="#f7e8b5" d="M387.5,-108C393.5,-108 399.5,-114 399.5,-120"/>
<path fill="#f7e8b5" stroke="#f7e8b5" d="M399.5,-132C399.5,-138 393.5,-144 387.5,-144"/>
<polyline fill="none" stroke="black" points="387.5,-144 146.5,-144 "/>
<path fill="none" stroke="black" d="M146.5,-144C140.5,-144 134.5,-138 134.5,-132"/>
<polyline fill="none" stroke="black" points="134.5,-132 134.5,-120 "/>
<path fill="none" stroke="black" d="M134.5,-120C134.5,-114 140.5,-108 146.5,-108"/>
<polyline fill="none" stroke="black" points="146.5,-108 387.5,-108 "/>
<path fill="none" stroke="black" d="M387.5,-108C393.5,-108 399.5,-114 399.5,-120"/>
<polyline fill="none" stroke="black" points="399.5,-120 399.5,-132 "/>
<path fill="none" stroke="black" d="M399.5,-132C399.5,-138 393.5,-144 387.5,-144"/>
<text text-anchor="middle" x="267" y="-121.4" font-family="Arial" font-size="14.00">activerecord&#45;jdbcpostgresql&#45;adapter</text>
</g>
<!-- iudex&#45;da&#45;&gt;activerecord&#45;jdbcpostgresql&#45;adapter -->
<g id="edge7" class="edge"><title>iudex&#45;da&#45;&gt;activerecord&#45;jdbcpostgresql&#45;adapter</title>
<path fill="none" stroke="black" d="M97.6695,-126C105.881,-126 114.777,-126 124.045,-126"/>
<polygon fill="black" stroke="black" points="124.233,-129.5 134.232,-126 124.232,-122.5 124.233,-129.5"/>
</g>
<!-- rjack&#45;commons&#45;dbcp -->
<g id="node10" class="node"><title>rjack&#45;commons&#45;dbcp</title>
<polygon fill="#f7e8b5" stroke="#f7e8b5" points="342,-90 192,-90 180,-78 180,-66 192,-54 342,-54 354,-66 354,-78 342,-90"/>
<path fill="#f7e8b5" stroke="#f7e8b5" d="M192,-90C186,-90 180,-84 180,-78"/>
<path fill="#f7e8b5" stroke="#f7e8b5" d="M180,-66C180,-60 186,-54 192,-54"/>
<path fill="#f7e8b5" stroke="#f7e8b5" d="M342,-54C348,-54 354,-60 354,-66"/>
<path fill="#f7e8b5" stroke="#f7e8b5" d="M354,-78C354,-84 348,-90 342,-90"/>
<polyline fill="none" stroke="black" points="342,-90 192,-90 "/>
<path fill="none" stroke="black" d="M192,-90C186,-90 180,-84 180,-78"/>
<polyline fill="none" stroke="black" points="180,-78 180,-66 "/>
<path fill="none" stroke="black" d="M180,-66C180,-60 186,-54 192,-54"/>
<polyline fill="none" stroke="black" points="192,-54 342,-54 "/>
<path fill="none" stroke="black" d="M342,-54C348,-54 354,-60 354,-66"/>
<polyline fill="none" stroke="black" points="354,-66 354,-78 "/>
<path fill="none" stroke="black" d="M354,-78C354,-84 348,-90 342,-90"/>
<text text-anchor="middle" x="267" y="-67.4" font-family="Arial" font-size="14.00">rjack&#45;commons&#45;dbcp</text>
</g>
<!-- iudex&#45;da&#45;&gt;rjack&#45;commons&#45;dbcp -->
<g id="edge9" class="edge"><title>iudex&#45;da&#45;&gt;rjack&#45;commons&#45;dbcp</title>
<path fill="none" stroke="black" d="M97.709,-109.669C109.498,-105.91 122.146,-102.108 134,-99 145.49,-95.9879 157.616,-93.1084 169.673,-90.4273"/>
<polygon fill="black" stroke="black" points="170.745,-93.7757 179.769,-88.2234 169.252,-86.9367 170.745,-93.7757"/>
</g>
<!-- rjack&#45;commons&#45;dbutils -->
<g id="node12" class="node"><title>rjack&#45;commons&#45;dbutils</title>
<polygon fill="#f7e8b5" stroke="#f7e8b5" points="347,-36 187,-36 175,-24 175,-12 187,-0 347,-0 359,-12 359,-24 347,-36"/>
<path fill="#f7e8b5" stroke="#f7e8b5" d="M187,-36C181,-36 175,-30 175,-24"/>
<path fill="#f7e8b5" stroke="#f7e8b5" d="M175,-12C175,-6 181,-0 187,-0"/>
<path fill="#f7e8b5" stroke="#f7e8b5" d="M347,-0C353,-0 359,-6 359,-12"/>
<path fill="#f7e8b5" stroke="#f7e8b5" d="M359,-24C359,-30 353,-36 347,-36"/>
<polyline fill="none" stroke="black" points="347,-36 187,-36 "/>
<path fill="none" stroke="black" d="M187,-36C181,-36 175,-30 175,-24"/>
<polyline fill="none" stroke="black" points="175,-24 175,-12 "/>
<path fill="none" stroke="black" d="M175,-12C175,-6 181,-0 187,-0"/>
<polyline fill="none" stroke="black" points="187,-0 347,-0 "/>
<path fill="none" stroke="black" d="M347,-0C353,-0 359,-6 359,-12"/>
<polyline fill="none" stroke="black" points="359,-12 359,-24 "/>
<path fill="none" stroke="black" d="M359,-24C359,-30 353,-36 347,-36"/>
<text text-anchor="middle" x="267" y="-13.4" font-family="Arial" font-size="14.00">rjack&#45;commons&#45;dbutils</text>
</g>
<!-- iudex&#45;da&#45;&gt;rjack&#45;commons&#45;dbutils -->
<g id="edge11" class="edge"><title>iudex&#45;da&#45;&gt;rjack&#45;commons&#45;dbutils</title>
<path fill="none" stroke="black" d="M63.6333,-107.787C78.7141,-89.013 104.778,-60.3803 134,-45 143.667,-39.9119 154.2,-35.7816 164.962,-32.4291"/>
<polygon fill="black" stroke="black" points="166.253,-35.6993 174.891,-29.5637 164.312,-28.9738 166.253,-35.6993"/>
</g>
<!-- activesupport -->
<g id="node4" class="node"><title>activesupport</title>
<polygon fill="#f7e8b5" stroke="#f7e8b5" points="588.5,-244 485.5,-244 473.5,-232 473.5,-220 485.5,-208 588.5,-208 600.5,-220 600.5,-232 588.5,-244"/>
<path fill="#f7e8b5" stroke="#f7e8b5" d="M485.5,-244C479.5,-244 473.5,-238 473.5,-232"/>
<path fill="#f7e8b5" stroke="#f7e8b5" d="M473.5,-220C473.5,-214 479.5,-208 485.5,-208"/>
<path fill="#f7e8b5" stroke="#f7e8b5" d="M588.5,-208C594.5,-208 600.5,-214 600.5,-220"/>
<path fill="#f7e8b5" stroke="#f7e8b5" d="M600.5,-232C600.5,-238 594.5,-244 588.5,-244"/>
<polyline fill="none" stroke="black" points="588.5,-244 485.5,-244 "/>
<path fill="none" stroke="black" d="M485.5,-244C479.5,-244 473.5,-238 473.5,-232"/>
<polyline fill="none" stroke="black" points="473.5,-232 473.5,-220 "/>
<path fill="none" stroke="black" d="M473.5,-220C473.5,-214 479.5,-208 485.5,-208"/>
<polyline fill="none" stroke="black" points="485.5,-208 588.5,-208 "/>
<path fill="none" stroke="black" d="M588.5,-208C594.5,-208 600.5,-214 600.5,-220"/>
<polyline fill="none" stroke="black" points="600.5,-220 600.5,-232 "/>
<path fill="none" stroke="black" d="M600.5,-232C600.5,-238 594.5,-244 588.5,-244"/>
<text text-anchor="middle" x="537" y="-221.4" font-family="Arial" font-size="14.00">activesupport</text>
</g>
<!-- activerecord&#45;&gt;activesupport -->
<g id="edge3" class="edge"><title>activerecord&#45;&gt;activesupport</title>
<path fill="none" stroke="black" d="M327.146,-222.883C367.246,-223.481 420.515,-224.276 463.218,-224.914"/>
<polygon fill="black" stroke="black" points="463.221,-228.414 473.272,-225.064 463.326,-221.415 463.221,-228.414"/>
</g>
<!-- activerecord&#45;jdbcpostgresql&#45;adapter&#45;&gt;jdbc&#45;postgres -->
<g id="edge17" class="edge"><title>activerecord&#45;jdbcpostgresql&#45;adapter&#45;&gt;jdbc&#45;postgres</title>
<path fill="none" stroke="black" d="M373.152,-144.048C402.929,-149.16 434.703,-154.613 462.204,-159.334"/>
<polygon fill="black" stroke="black" points="461.684,-162.795 472.132,-161.038 462.868,-155.896 461.684,-162.795"/>
</g>
<!-- activerecord&#45;jdbc&#45;adapter -->
<g id="node16" class="node"><title>activerecord&#45;jdbc&#45;adapter</title>
<polygon fill="#f7e8b5" stroke="#f7e8b5" points="625.5,-136 448.5,-136 436.5,-124 436.5,-112 448.5,-100 625.5,-100 637.5,-112 637.5,-124 625.5,-136"/>
<path fill="#f7e8b5" stroke="#f7e8b5" d="M448.5,-136C442.5,-136 436.5,-130 436.5,-124"/>
<path fill="#f7e8b5" stroke="#f7e8b5" d="M436.5,-112C436.5,-106 442.5,-100 448.5,-100"/>
<path fill="#f7e8b5" stroke="#f7e8b5" d="M625.5,-100C631.5,-100 637.5,-106 637.5,-112"/>
<path fill="#f7e8b5" stroke="#f7e8b5" d="M637.5,-124C637.5,-130 631.5,-136 625.5,-136"/>
<polyline fill="none" stroke="black" points="625.5,-136 448.5,-136 "/>
<path fill="none" stroke="black" d="M448.5,-136C442.5,-136 436.5,-130 436.5,-124"/>
<polyline fill="none" stroke="black" points="436.5,-124 436.5,-112 "/>
<path fill="none" stroke="black" d="M436.5,-112C436.5,-106 442.5,-100 448.5,-100"/>
<polyline fill="none" stroke="black" points="448.5,-100 625.5,-100 "/>
<path fill="none" stroke="black" d="M625.5,-100C631.5,-100 637.5,-106 637.5,-112"/>
<polyline fill="none" stroke="black" points="637.5,-112 637.5,-124 "/>
<path fill="none" stroke="black" d="M637.5,-124C637.5,-130 631.5,-136 625.5,-136"/>
<text text-anchor="middle" x="537" y="-113.4" font-family="Arial" font-size="14.00">activerecord&#45;jdbc&#45;adapter</text>
</g>
<!-- activerecord&#45;jdbcpostgresql&#45;adapter&#45;&gt;activerecord&#45;jdbc&#45;adapter -->
<g id="edge15" class="edge"><title>activerecord&#45;jdbcpostgresql&#45;adapter&#45;&gt;activerecord&#45;jdbc&#45;adapter</title>
<path fill="none" stroke="black" d="M399.645,-122.07C408.493,-121.806 417.355,-121.542 426.077,-121.281"/>
<polygon fill="black" stroke="black" points="426.35,-124.775 436.241,-120.978 426.141,-117.778 426.35,-124.775"/>
</g>
<!-- rjack&#45;commons&#45;pool -->
<g id="node14" class="node"><title>rjack&#45;commons&#45;pool</title>
<polygon fill="#f7e8b5" stroke="#f7e8b5" points="610,-82 464,-82 452,-70 452,-58 464,-46 610,-46 622,-58 622,-70 610,-82"/>
<path fill="#f7e8b5" stroke="#f7e8b5" d="M464,-82C458,-82 452,-76 452,-70"/>
<path fill="#f7e8b5" stroke="#f7e8b5" d="M452,-58C452,-52 458,-46 464,-46"/>
<path fill="#f7e8b5" stroke="#f7e8b5" d="M610,-46C616,-46 622,-52 622,-58"/>
<path fill="#f7e8b5" stroke="#f7e8b5" d="M622,-70C622,-76 616,-82 610,-82"/>
<polyline fill="none" stroke="black" points="610,-82 464,-82 "/>
<path fill="none" stroke="black" d="M464,-82C458,-82 452,-76 452,-70"/>
<polyline fill="none" stroke="black" points="452,-70 452,-58 "/>
<path fill="none" stroke="black" d="M452,-58C452,-52 458,-46 464,-46"/>
<polyline fill="none" stroke="black" points="464,-46 610,-46 "/>
<path fill="none" stroke="black" d="M610,-46C616,-46 622,-52 622,-58"/>
<polyline fill="none" stroke="black" points="622,-58 622,-70 "/>
<path fill="none" stroke="black" d="M622,-70C622,-76 616,-82 610,-82"/>
<text text-anchor="middle" x="537" y="-59.4" font-family="Arial" font-size="14.00">rjack&#45;commons&#45;pool</text>
</g>
<!-- rjack&#45;commons&#45;dbcp&#45;&gt;rjack&#45;commons&#45;pool -->
<g id="edge13" class="edge"><title>rjack&#45;commons&#45;dbcp&#45;&gt;rjack&#45;commons&#45;pool</title>
<path fill="none" stroke="black" d="M354.272,-69.4247C382.073,-68.5948 413.028,-67.6708 441.396,-66.824"/>
<polygon fill="black" stroke="black" points="441.829,-70.3127 451.72,-66.5158 441.62,-63.3158 441.829,-70.3127"/>
</g>
</g>
</svg>
