<?xml version="1.0" encoding="UTF-8" standalone="no"?>
<!DOCTYPE svg PUBLIC "-//W3C//DTD SVG 1.1//EN"
 "http://www.w3.org/Graphics/SVG/1.1/DTD/svg11.dtd">
<!-- Generated by graphviz version 2.28.0 (20120525.0300)
 -->
<!-- Title: iudex&#45;gems Pages: 1 -->
<svg width="374pt" height="199pt"
 viewBox="0.00 0.00 374.00 199.00" xmlns="http://www.w3.org/2000/svg" xmlns:xlink="http://www.w3.org/1999/xlink">
<g id="graph1" class="graph" transform="scale(1 1) rotate(0) translate(4 195)">
<title>iudex&#45;gems</title>
<!-- order -->
<g id="node1" class="node"><title>order</title>
<polygon fill="#f7e8b5" stroke="black" points="0.5,-71 0.5,-191 97.5,-191 97.5,-71 0.5,-71"/>
<text text-anchor="middle" x="49" y="-178" font-family="Arial" font-size="10.00">order</text>
<polyline fill="none" stroke="black" points="0.5,-171 97.5,-171 "/>
<text text-anchor="middle" x="49" y="-158" font-family="Arial" font-size="10.00">URL: http://www/3</text>
<polyline fill="none" stroke="black" points="0.5,-151 97.5,-151 "/>
<text text-anchor="middle" x="49" y="-138" font-family="Arial" font-size="10.00">PRIORITY: 2.0</text>
<polyline fill="none" stroke="black" points="0.5,-131 97.5,-131 "/>
<text text-anchor="middle" x="49" y="-118" font-family="Arial" font-size="10.00">STATUS: 200</text>
<polyline fill="none" stroke="black" points="0.5,-111 97.5,-111 "/>
<text text-anchor="middle" x="49" y="-98" font-family="Arial" font-size="10.00">LAST</text>
<polyline fill="none" stroke="black" points="0.5,-91 97.5,-91 "/>
<text text-anchor="middle" x="49" y="-78" font-family="Arial" font-size="10.00">REFERER</text>
</g>
<!-- last -->
<g id="node2" class="node"><title>last</title>
<polygon fill="#f7e8b5" stroke="black" points="134.5,-70 134.5,-190 231.5,-190 231.5,-70 134.5,-70"/>
<text text-anchor="middle" x="183" y="-177" font-family="Arial" font-size="10.00">last</text>
<polyline fill="none" stroke="black" points="134.5,-170 231.5,-170 "/>
<text text-anchor="middle" x="183" y="-157" font-family="Arial" font-size="10.00">URL: http://www/2</text>
<polyline fill="none" stroke="black" points="134.5,-150 231.5,-150 "/>
<text text-anchor="middle" x="183" y="-137" font-family="Arial" font-size="10.00">PRIORITY: 1.5</text>
<polyline fill="none" stroke="black" points="134.5,-130 231.5,-130 "/>
<text text-anchor="middle" x="183" y="-117" font-family="Arial" font-size="10.00">STATUS: 301</text>
<polyline fill="none" stroke="black" points="134.5,-110 231.5,-110 "/>
<text text-anchor="middle" x="183" y="-97" font-family="Arial" font-size="10.00">LAST</text>
<polyline fill="none" stroke="black" points="134.5,-90 231.5,-90 "/>
<text text-anchor="middle" x="183" y="-77" font-family="Arial" font-size="10.00">REFERER</text>
</g>
<!-- order&#45;&gt;last -->
<g id="edge6" class="edge"><title>order:l&#45;&gt;last:t</title>
<path fill="none" stroke="black" d="M98,-101C133.42,-101 101.633,-167.571 126.026,-178.492"/>
<polygon fill="black" stroke="black" points="125.619,-181.265 134,-180 126.659,-175.762 125.619,-181.265"/>
</g>
<!-- referer -->
<g id="node3" class="node"><title>referer</title>
<polygon fill="#f7e8b5" stroke="black" points="268.5,-0 268.5,-100 365.5,-100 365.5,-0 268.5,-0"/>
<text text-anchor="middle" x="317" y="-87" font-family="Arial" font-size="10.00">referer</text>
<polyline fill="none" stroke="black" points="268.5,-80 365.5,-80 "/>
<text text-anchor="middle" x="317" y="-67" font-family="Arial" font-size="10.00">URL: http://www/1</text>
<polyline fill="none" stroke="black" points="268.5,-60 365.5,-60 "/>
<text text-anchor="middle" x="317" y="-47" font-family="Arial" font-size="10.00">PRIORITY: 1.0</text>
<polyline fill="none" stroke="black" points="268.5,-40 365.5,-40 "/>
<text text-anchor="middle" x="317" y="-27" font-family="Arial" font-size="10.00">STATUS: 302</text>
<polyline fill="none" stroke="black" points="268.5,-20 365.5,-20 "/>
<text text-anchor="middle" x="317" y="-7" font-family="Arial" font-size="10.00">REFERENT</text>
</g>
<!-- order&#45;&gt;referer -->
<g id="edge2" class="edge"><title>order:rf&#45;&gt;referer:t</title>
<path fill="none" stroke="black" d="M98,-81C126.844,-81 108.569,-40.6105 134,-27 172.402,-6.44797 194.328,-5.1383 232,-27 257.169,-41.6059 239.97,-81.1488 260.064,-88.7328"/>
<polygon fill="black" stroke="black" points="259.659,-91.5034 268,-90 260.542,-85.9734 259.659,-91.5034"/>
</g>
<!-- order&#45;&gt;referer -->
<g id="edge4" class="edge"><title>order:t&#45;&gt;referer:rt</title>
<path fill="none" stroke="black" stroke-dasharray="5,2" d="M106.148,-180.304C147.604,-172.39 97.5794,-99.0019 134,-61 165.899,-27.7155 189.317,-44.4236 232,-27 248.382,-20.3128 250.306,-10 268,-10"/>
<polygon fill="black" stroke="black" points="105.732,-177.529 98,-181 106.209,-183.108 105.732,-177.529"/>
</g>
<!-- last&#45;&gt;referer -->
<g id="edge8" class="edge"><title>last:rf&#45;&gt;referer:t</title>
<path fill="none" stroke="black" d="M232,-80C245.492,-80 249.863,-86.6016 259.934,-89.0771"/>
<polygon fill="black" stroke="black" points="259.734,-91.8724 268,-90 260.37,-86.3087 259.734,-91.8724"/>
</g>
<!-- last&#45;&gt;referer -->
<g id="edge10" class="edge"><title>last:l&#45;&gt;referer:t</title>
<path fill="none" stroke="black" d="M232,-100C245.492,-100 249.863,-93.3984 259.934,-90.9229"/>
<polygon fill="black" stroke="black" points="260.37,-93.6913 268,-90 259.734,-88.1276 260.37,-93.6913"/>
</g>
</g>
</svg>
