<?xml version="1.0" encoding="UTF-8" standalone="no"?>
<!DOCTYPE svg PUBLIC "-//W3C//DTD SVG 1.1//EN"
 "http://www.w3.org/Graphics/SVG/1.1/DTD/svg11.dtd">
<!-- Generated by graphviz version 2.28.0 (20120525.0300)
 -->
<!-- Title: iudex&#45;gems Pages: 1 -->
<svg width="240pt" height="189pt"
 viewBox="0.00 0.00 240.00 189.00" xmlns="http://www.w3.org/2000/svg" xmlns:xlink="http://www.w3.org/1999/xlink">
<g id="graph1" class="graph" transform="scale(1 1) rotate(0) translate(4 185)">
<title>iudex&#45;gems</title>
<!-- order -->
<g id="node1" class="node"><title>order</title>
<polygon fill="#f7e8b5" stroke="black" points="0,-60 0,-180 98,-180 98,-60 0,-60"/>
<text text-anchor="middle" x="49" y="-167" font-family="Arial" font-size="10.00">order</text>
<polyline fill="none" stroke="black" points="0,-160 98,-160 "/>
<text text-anchor="middle" x="49" y="-147" font-family="Arial" font-size="10.00">URL: http://www/1</text>
<polyline fill="none" stroke="black" points="0,-140 98,-140 "/>
<text text-anchor="middle" x="49" y="-127" font-family="Arial" font-size="10.00">PRIORITY: 1.0</text>
<polyline fill="none" stroke="black" points="0,-120 98,-120 "/>
<text text-anchor="middle" x="49" y="-107" font-family="Arial" font-size="10.00">STATUS: 302</text>
<polyline fill="none" stroke="black" points="0,-100 98,-100 "/>
<text text-anchor="middle" x="49" y="-87" font-family="Arial" font-size="10.00">REVISIT_ORDER</text>
<polyline fill="none" stroke="black" points="0,-80 98,-80 "/>
<text text-anchor="middle" x="49" y="-67" font-family="Arial" font-size="10.00">REFERENT</text>
</g>
<!-- revisit -->
<g id="node2" class="node"><title>revisit</title>
<polygon fill="#f7e8b5" stroke="black" points="134.5,-0 134.5,-100 231.5,-100 231.5,-0 134.5,-0"/>
<text text-anchor="middle" x="183" y="-87" font-family="Arial" font-size="10.00">revisit</text>
<polyline fill="none" stroke="black" points="134.5,-80 231.5,-80 "/>
<text text-anchor="middle" x="183" y="-67" font-family="Arial" font-size="10.00">URL: http://www/2</text>
<polyline fill="none" stroke="black" points="134.5,-60 231.5,-60 "/>
<text text-anchor="middle" x="183" y="-47" font-family="Arial" font-size="10.00">PRIORITY: 1.5</text>
<polyline fill="none" stroke="black" points="134.5,-40 231.5,-40 "/>
<text text-anchor="middle" x="183" y="-27" font-family="Arial" font-size="10.00">LAST</text>
<polyline fill="none" stroke="black" points="134.5,-20 231.5,-20 "/>
<text text-anchor="middle" x="183" y="-7" font-family="Arial" font-size="10.00">REFERER</text>
</g>
<!-- order&#45;&gt;revisit -->
<g id="edge2" class="edge"><title>order:ro&#45;&gt;revisit:t</title>
<path fill="none" stroke="#2844a1" stroke-width="2" d="M98,-90C110.875,-90 115.98,-90 125.819,-90"/>
<polygon fill="#2844a1" stroke="#2844a1" points="126,-92.8001 134,-90 126,-87.2001 126,-92.8001"/>
</g>
<!-- order&#45;&gt;revisit -->
<g id="edge4" class="edge"><title>order:t&#45;&gt;revisit:rf</title>
<path fill="none" stroke="black" d="M106.072,-169.215C162.191,-157.144 64.1007,-10 134,-10"/>
<polygon fill="black" stroke="black" points="105.691,-166.438 98,-170 106.234,-172.012 105.691,-166.438"/>
</g>
<!-- order&#45;&gt;revisit -->
<g id="edge6" class="edge"><title>order:t&#45;&gt;revisit:l</title>
<path fill="none" stroke="black" d="M106.034,-169.106C153.92,-157.183 72.7651,-30 134,-30"/>
<polygon fill="black" stroke="black" points="105.641,-166.332 98,-170 106.261,-171.898 105.641,-166.332"/>
</g>
<!-- order&#45;&gt;revisit -->
<g id="edge8" class="edge"><title>order:rt&#45;&gt;revisit:t</title>
<path fill="none" stroke="black" stroke-dasharray="5,2" d="M98,-70C113.157,-70 115.347,-83.7158 126.046,-88.4306"/>
<polygon fill="black" stroke="black" points="125.609,-91.1983 134,-90 126.693,-85.7043 125.609,-91.1983"/>
</g>
</g>
</svg>
