<?xml version="1.0" encoding="UTF-8" standalone="no"?>
<!DOCTYPE svg PUBLIC "-//W3C//DTD SVG 1.1//EN"
 "http://www.w3.org/Graphics/SVG/1.1/DTD/svg11.dtd">
<!-- Generated by graphviz version 2.28.0 (20120525.0300)
 -->
<!-- Title: iudex&#45;gems Pages: 1 -->
<svg width="436pt" height="44pt"
 viewBox="0.00 0.00 436.00 44.00" xmlns="http://www.w3.org/2000/svg" xmlns:xlink="http://www.w3.org/1999/xlink">
<g id="graph1" class="graph" transform="scale(1 1) rotate(0) translate(4 40)">
<title>iudex&#45;gems</title>
<!-- u1 -->
<g id="node1" class="node"><title>u1</title>
<polygon fill="#f7e8b5" stroke="#f7e8b5" points="59.5,-36 12.5,-36 0.5,-24 0.5,-12 12.5,-0 59.5,-0 71.5,-12 71.5,-24 59.5,-36"/>
<path fill="#f7e8b5" stroke="#f7e8b5" d="M12.5,-36C6.5,-36 0.5,-30 0.5,-24"/>
<path fill="#f7e8b5" stroke="#f7e8b5" d="M0.5,-12C0.5,-6 6.5,-0 12.5,-0"/>
<path fill="#f7e8b5" stroke="#f7e8b5" d="M59.5,-0C65.5,-0 71.5,-6 71.5,-12"/>
<path fill="#f7e8b5" stroke="#f7e8b5" d="M71.5,-24C71.5,-30 65.5,-36 59.5,-36"/>
<polyline fill="none" stroke="black" points="59.5,-36 12.5,-36 "/>
<path fill="none" stroke="black" d="M12.5,-36C6.5,-36 0.5,-30 0.5,-24"/>
<polyline fill="none" stroke="black" points="0.5,-24 0.5,-12 "/>
<path fill="none" stroke="black" d="M0.5,-12C0.5,-6 6.5,-0 12.5,-0"/>
<polyline fill="none" stroke="black" points="12.5,-0 59.5,-0 "/>
<path fill="none" stroke="black" d="M59.5,-0C65.5,-0 71.5,-6 71.5,-12"/>
<polyline fill="none" stroke="black" points="71.5,-12 71.5,-24 "/>
<path fill="none" stroke="black" d="M71.5,-24C71.5,-30 65.5,-36 59.5,-36"/>
<text text-anchor="middle" x="36" y="-15" font-family="Arial" font-size="10.00">http://www/1</text>
</g>
<!-- u2 -->
<g id="node2" class="node"><title>u2</title>
<polygon fill="#f7e8b5" stroke="#f7e8b5" points="183.5,-36 136.5,-36 124.5,-24 124.5,-12 136.5,-0 183.5,-0 195.5,-12 195.5,-24 183.5,-36"/>
<path fill="#f7e8b5" stroke="#f7e8b5" d="M136.5,-36C130.5,-36 124.5,-30 124.5,-24"/>
<path fill="#f7e8b5" stroke="#f7e8b5" d="M124.5,-12C124.5,-6 130.5,-0 136.5,-0"/>
<path fill="#f7e8b5" stroke="#f7e8b5" d="M183.5,-0C189.5,-0 195.5,-6 195.5,-12"/>
<path fill="#f7e8b5" stroke="#f7e8b5" d="M195.5,-24C195.5,-30 189.5,-36 183.5,-36"/>
<polyline fill="none" stroke="black" points="183.5,-36 136.5,-36 "/>
<path fill="none" stroke="black" d="M136.5,-36C130.5,-36 124.5,-30 124.5,-24"/>
<polyline fill="none" stroke="black" points="124.5,-24 124.5,-12 "/>
<path fill="none" stroke="black" d="M124.5,-12C124.5,-6 130.5,-0 136.5,-0"/>
<polyline fill="none" stroke="black" points="136.5,-0 183.5,-0 "/>
<path fill="none" stroke="black" d="M183.5,-0C189.5,-0 195.5,-6 195.5,-12"/>
<polyline fill="none" stroke="black" points="195.5,-12 195.5,-24 "/>
<path fill="none" stroke="black" d="M195.5,-24C195.5,-30 189.5,-36 183.5,-36"/>
<text text-anchor="middle" x="160" y="-15" font-family="Arial" font-size="10.00">http://www/2</text>
</g>
<!-- u1&#45;&gt;u2 -->
<g id="edge2" class="edge"><title>u1&#45;&gt;u2</title>
<path fill="none" stroke="black" d="M71.634,-18C85.4139,-18 101.417,-18 115.933,-18"/>
<polygon fill="black" stroke="black" points="116.279,-20.8001 124.279,-18 116.279,-15.2001 116.279,-20.8001"/>
<text text-anchor="middle" x="98" y="-19.9" font-family="Arial" font-size="9.00">302</text>
</g>
<!-- u3 -->
<g id="node3" class="node"><title>u3</title>
<polygon fill="#f7e8b5" stroke="#f7e8b5" points="307.5,-36 260.5,-36 248.5,-24 248.5,-12 260.5,-0 307.5,-0 319.5,-12 319.5,-24 307.5,-36"/>
<path fill="#f7e8b5" stroke="#f7e8b5" d="M260.5,-36C254.5,-36 248.5,-30 248.5,-24"/>
<path fill="#f7e8b5" stroke="#f7e8b5" d="M248.5,-12C248.5,-6 254.5,-0 260.5,-0"/>
<path fill="#f7e8b5" stroke="#f7e8b5" d="M307.5,-0C313.5,-0 319.5,-6 319.5,-12"/>
<path fill="#f7e8b5" stroke="#f7e8b5" d="M319.5,-24C319.5,-30 313.5,-36 307.5,-36"/>
<polyline fill="none" stroke="black" points="307.5,-36 260.5,-36 "/>
<path fill="none" stroke="black" d="M260.5,-36C254.5,-36 248.5,-30 248.5,-24"/>
<polyline fill="none" stroke="black" points="248.5,-24 248.5,-12 "/>
<path fill="none" stroke="black" d="M248.5,-12C248.5,-6 254.5,-0 260.5,-0"/>
<polyline fill="none" stroke="black" points="260.5,-0 307.5,-0 "/>
<path fill="none" stroke="black" d="M307.5,-0C313.5,-0 319.5,-6 319.5,-12"/>
<polyline fill="none" stroke="black" points="319.5,-12 319.5,-24 "/>
<path fill="none" stroke="black" d="M319.5,-24C319.5,-30 313.5,-36 307.5,-36"/>
<text text-anchor="middle" x="284" y="-15" font-family="Arial" font-size="10.00">http://www/3</text>
</g>
<!-- u2&#45;&gt;u3 -->
<g id="edge4" class="edge"><title>u2&#45;&gt;u3</title>
<path fill="none" stroke="black" d="M195.634,-18C209.414,-18 225.417,-18 239.933,-18"/>
<polygon fill="black" stroke="black" points="240.279,-20.8001 248.279,-18 240.279,-15.2001 240.279,-20.8001"/>
<text text-anchor="middle" x="222" y="-19.9" font-family="Arial" font-size="9.00">301</text>
</g>
<!-- done -->
<!-- u3&#45;&gt;done -->
<g id="edge6" class="edge"><title>u3&#45;&gt;done</title>
<path fill="none" stroke="black" d="M319.504,-18C334.65,-18 352.346,-18 367.282,-18"/>
<ellipse fill="black" stroke="black" cx="370.732" cy="-18" rx="3.2" ry="3.2"/>
<text text-anchor="middle" x="347" y="-19.9" font-family="Arial" font-size="9.00">200</text>
</g>
</g>
</svg>
