<?xml version="1.0" encoding="UTF-8" standalone="no"?>
<!DOCTYPE svg PUBLIC "-//W3C//DTD SVG 1.1//EN"
 "http://www.w3.org/Graphics/SVG/1.1/DTD/svg11.dtd">
<!-- Generated by graphviz version 2.28.0 (20120525.0300)
 -->
<!-- Title: iudex&#45;gems Pages: 1 -->
<svg width="240pt" height="188pt"
 viewBox="0.00 0.00 240.00 188.00" xmlns="http://www.w3.org/2000/svg" xmlns:xlink="http://www.w3.org/1999/xlink">
<g id="graph1" class="graph" transform="scale(1 1) rotate(0) translate(4 184)">
<title>iudex&#45;gems</title>
<!-- order -->
<g id="node1" class="node"><title>order</title>
<polygon fill="#f7e8b5" stroke="black" points="0.5,-80 0.5,-180 97.5,-180 97.5,-80 0.5,-80"/>
<text text-anchor="middle" x="49" y="-167" font-family="Arial" font-size="10.00">order</text>
<polyline fill="none" stroke="black" points="0.5,-160 97.5,-160 "/>
<text text-anchor="middle" x="49" y="-147" font-family="Arial" font-size="10.00">URL: http://www/2</text>
<polyline fill="none" stroke="black" points="0.5,-140 97.5,-140 "/>
<text text-anchor="middle" x="49" y="-127" font-family="Arial" font-size="10.00">PRIORITY: 1.5</text>
<polyline fill="none" stroke="black" points="0.5,-120 97.5,-120 "/>
<text text-anchor="middle" x="49" y="-107" font-family="Arial" font-size="10.00">LAST</text>
<polyline fill="none" stroke="black" points="0.5,-100 97.5,-100 "/>
<text text-anchor="middle" x="49" y="-87" font-family="Arial" font-size="10.00">REFERER</text>
</g>
<!-- referer -->
<g id="node2" class="node"><title>referer</title>
<polygon fill="#f7e8b5" stroke="black" points="134.5,-0 134.5,-100 231.5,-100 231.5,-0 134.5,-0"/>
<text text-anchor="middle" x="183" y="-87" font-family="Arial" font-size="10.00">referer</text>
<polyline fill="none" stroke="black" points="134.5,-80 231.5,-80 "/>
<text text-anchor="middle" x="183" y="-67" font-family="Arial" font-size="10.00">URL: http://www/1</text>
<polyline fill="none" stroke="black" points="134.5,-60 231.5,-60 "/>
<text text-anchor="middle" x="183" y="-47" font-family="Arial" font-size="10.00">PRIORITY: 1.0</text>
<polyline fill="none" stroke="black" points="134.5,-40 231.5,-40 "/>
<text text-anchor="middle" x="183" y="-27" font-family="Arial" font-size="10.00">STATUS: 302</text>
<polyline fill="none" stroke="black" points="134.5,-20 231.5,-20 "/>
<text text-anchor="middle" x="183" y="-7" font-family="Arial" font-size="10.00">REFERENT</text>
</g>
<!-- order&#45;&gt;referer -->
<g id="edge2" class="edge"><title>order:rf&#45;&gt;referer:t</title>
<path fill="none" stroke="black" d="M98,-90C110.875,-90 115.98,-90 125.819,-90"/>
<polygon fill="black" stroke="black" points="126,-92.8001 134,-90 126,-87.2001 126,-92.8001"/>
</g>
<!-- order&#45;&gt;referer -->
<g id="edge6" class="edge"><title>order:l&#45;&gt;referer:t</title>
<path fill="none" stroke="black" d="M98,-110C113.157,-110 115.347,-96.2842 126.046,-91.5694"/>
<polygon fill="black" stroke="black" points="126.693,-94.2957 134,-90 125.609,-88.8017 126.693,-94.2957"/>
</g>
<!-- referer&#45;&gt;order -->
<g id="edge4" class="edge"><title>referer:rt&#45;&gt;order:t</title>
<path fill="none" stroke="black" stroke-dasharray="5,2" d="M134,-10C64.1007,-10 162.191,-157.144 106.072,-169.215"/>
<polygon fill="black" stroke="black" points="105.691,-166.438 98,-170 106.234,-172.012 105.691,-166.438"/>
</g>
</g>
</svg>
