<?xml version="1.0" encoding="UTF-8" standalone="no"?>
<!DOCTYPE svg PUBLIC "-//W3C//DTD SVG 1.1//EN"
 "http://www.w3.org/Graphics/SVG/1.1/DTD/svg11.dtd">
<!-- Generated by graphviz version 2.28.0 (20120525.0300)
 -->
<!-- Title: absent Pages: 1 -->
<svg width="1567pt" height="260pt"
 viewBox="0.00 0.00 1567.00 260.00" xmlns="http://www.w3.org/2000/svg" xmlns:xlink="http://www.w3.org/1999/xlink">
<g id="graph1" class="graph" transform="scale(1 1) rotate(0) translate(4 256)">
<title>absent</title>
<polygon fill="white" stroke="white" points="-4,5 -4,-256 1564,-256 1564,5 -4,5"/>
<!-- activerecord -->
<g id="node1" class="node"><title>activerecord</title>
<ellipse fill="none" stroke="blue" cx="61" cy="-234" rx="57.0296" ry="18"/>
<text text-anchor="middle" x="61" y="-229.4" font-family="Times,serif" font-size="14.00">activerecord</text>
</g>
<!-- activesupport -->
<g id="node13" class="node"><title>activesupport</title>
<ellipse fill="none" stroke="black" cx="61" cy="-162" rx="61.067" ry="18"/>
<text text-anchor="middle" x="61" y="-157.4" font-family="Times,serif" font-size="14.00">activesupport</text>
</g>
<!-- activerecord&#45;&gt;activesupport -->
<g id="edge2" class="edge"><title>activerecord&#45;&gt;activesupport</title>
<path fill="none" stroke="black" d="M61,-215.697C61,-207.983 61,-198.712 61,-190.112"/>
<polygon fill="black" stroke="black" points="64.5001,-190.104 61,-180.104 57.5001,-190.104 64.5001,-190.104"/>
</g>
<!-- activerecord&#45;jdbcpostgresql&#45;adapter -->
<g id="node2" class="node"><title>activerecord&#45;jdbcpostgresql&#45;adapter</title>
<ellipse fill="none" stroke="blue" cx="374" cy="-234" rx="144.34" ry="18"/>
<text text-anchor="middle" x="374" y="-229.4" font-family="Times,serif" font-size="14.00">activerecord&#45;jdbcpostgresql&#45;adapter</text>
</g>
<!-- activerecord&#45;jdbc&#45;adapter -->
<g id="node15" class="node"><title>activerecord&#45;jdbc&#45;adapter</title>
<ellipse fill="none" stroke="black" cx="246" cy="-162" rx="105.484" ry="18"/>
<text text-anchor="middle" x="246" y="-157.4" font-family="Times,serif" font-size="14.00">activerecord&#45;jdbc&#45;adapter</text>
</g>
<!-- activerecord&#45;jdbcpostgresql&#45;adapter&#45;&gt;activerecord&#45;jdbc&#45;adapter -->
<g id="edge4" class="edge"><title>activerecord&#45;jdbcpostgresql&#45;adapter&#45;&gt;activerecord&#45;jdbc&#45;adapter</title>
<path fill="none" stroke="black" d="M343.341,-216.233C325.798,-206.64 303.619,-194.511 284.864,-184.254"/>
<polygon fill="black" stroke="black" points="286.42,-181.116 275.967,-179.388 283.062,-187.257 286.42,-181.116"/>
</g>
<!-- jdbc&#45;postgres -->
<g id="node17" class="node"><title>jdbc&#45;postgres</title>
<ellipse fill="none" stroke="black" cx="433" cy="-162" rx="63.0857" ry="18"/>
<text text-anchor="middle" x="433" y="-157.4" font-family="Times,serif" font-size="14.00">jdbc&#45;postgres</text>
</g>
<!-- activerecord&#45;jdbcpostgresql&#45;adapter&#45;&gt;jdbc&#45;postgres -->
<g id="edge6" class="edge"><title>activerecord&#45;jdbcpostgresql&#45;adapter&#45;&gt;jdbc&#45;postgres</title>
<path fill="none" stroke="black" d="M388.282,-216.055C395.457,-207.543 404.285,-197.068 412.197,-187.681"/>
<polygon fill="black" stroke="black" points="415.081,-189.691 418.849,-179.789 409.728,-185.18 415.081,-189.691"/>
</g>
<!-- gravitext&#45;xmlprod -->
<g id="node3" class="node"><title>gravitext&#45;xmlprod</title>
<ellipse fill="none" stroke="blue" cx="665" cy="-234" rx="77.2242" ry="18"/>
<text text-anchor="middle" x="665" y="-229.4" font-family="Times,serif" font-size="14.00">gravitext&#45;xmlprod</text>
</g>
<!-- gravitext&#45;util -->
<g id="node18" class="node"><title>gravitext&#45;util</title>
<ellipse fill="none" stroke="black" cx="622" cy="-162" rx="58.0428" ry="18"/>
<text text-anchor="middle" x="622" y="-157.4" font-family="Times,serif" font-size="14.00">gravitext&#45;util</text>
</g>
<!-- gravitext&#45;xmlprod&#45;&gt;gravitext&#45;util -->
<g id="edge10" class="edge"><title>gravitext&#45;xmlprod&#45;&gt;gravitext&#45;util</title>
<path fill="none" stroke="black" d="M654.591,-216.055C649.52,-207.801 643.317,-197.701 637.687,-188.538"/>
<polygon fill="black" stroke="black" points="640.53,-186.478 632.313,-179.789 634.565,-190.142 640.53,-186.478"/>
</g>
<!-- hoe -->
<g id="node20" class="node"><title>hoe</title>
<ellipse fill="none" stroke="black" cx="708" cy="-90" rx="27" ry="18"/>
<text text-anchor="middle" x="708" y="-85.4" font-family="Times,serif" font-size="14.00">hoe</text>
</g>
<!-- gravitext&#45;xmlprod&#45;&gt;hoe -->
<g id="edge12" class="edge"><title>gravitext&#45;xmlprod&#45;&gt;hoe</title>
<path fill="none" stroke="black" d="M673.97,-215.711C678.96,-205.532 684.96,-192.282 689,-180 695.695,-159.645 700.629,-135.879 703.789,-118.028"/>
<polygon fill="black" stroke="black" points="707.265,-118.461 705.485,-108.017 700.363,-117.292 707.265,-118.461"/>
</g>
<!-- jruby&#45;openssl -->
<g id="node4" class="node"><title>jruby&#45;openssl</title>
<ellipse fill="none" stroke="#551a8b" cx="824" cy="-234" rx="63.0857" ry="18"/>
<text text-anchor="middle" x="824" y="-229.4" font-family="Times,serif" font-size="14.00">jruby&#45;openssl</text>
</g>
<!-- json_pure -->
<g id="node5" class="node"><title>json_pure</title>
<ellipse fill="none" stroke="blue" cx="954" cy="-234" rx="48.4551" ry="18"/>
<text text-anchor="middle" x="954" y="-229.4" font-family="Times,serif" font-size="14.00">json_pure</text>
</g>
<!-- rdoc -->
<g id="node6" class="node"><title>rdoc</title>
<ellipse fill="none" stroke="blue" cx="764" cy="-162" rx="27.2554" ry="18"/>
<text text-anchor="middle" x="764" y="-157.4" font-family="Times,serif" font-size="14.00">rdoc</text>
</g>
<!-- rdoc&#45;&gt;hoe -->
<g id="edge18" class="edge"><title>rdoc&#45;&gt;hoe</title>
<path fill="none" stroke="black" d="M751.849,-145.811C744.437,-136.546 734.816,-124.52 726.475,-114.094"/>
<polygon fill="black" stroke="black" points="729.107,-111.782 720.127,-106.159 723.641,-116.154 729.107,-111.782"/>
</g>
<!-- rjack&#45;commons&#45;dbcp -->
<g id="node7" class="node"><title>rjack&#45;commons&#45;dbcp</title>
<ellipse fill="none" stroke="blue" cx="1112" cy="-234" rx="90.341" ry="18"/>
<text text-anchor="middle" x="1112" y="-229.4" font-family="Times,serif" font-size="14.00">rjack&#45;commons&#45;dbcp</text>
</g>
<!-- rjack&#45;commons&#45;pool -->
<g id="node28" class="node"><title>rjack&#45;commons&#45;pool</title>
<ellipse fill="none" stroke="black" cx="1112" cy="-162" rx="88.3223" ry="18"/>
<text text-anchor="middle" x="1112" y="-157.4" font-family="Times,serif" font-size="14.00">rjack&#45;commons&#45;pool</text>
</g>
<!-- rjack&#45;commons&#45;dbcp&#45;&gt;rjack&#45;commons&#45;pool -->
<g id="edge20" class="edge"><title>rjack&#45;commons&#45;dbcp&#45;&gt;rjack&#45;commons&#45;pool</title>
<path fill="none" stroke="black" d="M1112,-215.697C1112,-207.983 1112,-198.712 1112,-190.112"/>
<polygon fill="black" stroke="black" points="1115.5,-190.104 1112,-180.104 1108.5,-190.104 1115.5,-190.104"/>
</g>
<!-- rjack&#45;commons&#45;dbutils -->
<g id="node8" class="node"><title>rjack&#45;commons&#45;dbutils</title>
<ellipse fill="none" stroke="blue" cx="1318" cy="-234" rx="96.9043" ry="18"/>
<text text-anchor="middle" x="1318" y="-229.4" font-family="Times,serif" font-size="14.00">rjack&#45;commons&#45;dbutils</text>
</g>
<!-- rjack&#45;httpclient&#45;3 -->
<g id="node9" class="node"><title>rjack&#45;httpclient&#45;3</title>
<ellipse fill="none" stroke="blue" cx="1322" cy="-162" rx="75.1979" ry="18"/>
<text text-anchor="middle" x="1322" y="-157.4" font-family="Times,serif" font-size="14.00">rjack&#45;httpclient&#45;3</text>
</g>
<!-- rjack&#45;slf4j -->
<g id="node30" class="node"><title>rjack&#45;slf4j</title>
<ellipse fill="none" stroke="black" cx="1347" cy="-18" rx="47.9501" ry="18"/>
<text text-anchor="middle" x="1347" y="-13.4" font-family="Times,serif" font-size="14.00">rjack&#45;slf4j</text>
</g>
<!-- rjack&#45;httpclient&#45;3&#45;&gt;rjack&#45;slf4j -->
<g id="edge22" class="edge"><title>rjack&#45;httpclient&#45;3&#45;&gt;rjack&#45;slf4j</title>
<path fill="none" stroke="black" d="M1272.64,-148.352C1252.01,-140.363 1230.07,-127.698 1218,-108 1209.64,-94.3575 1209.09,-85.2907 1218,-72 1234.63,-47.1909 1265.18,-33.9848 1292.38,-26.9601"/>
<polygon fill="black" stroke="black" points="1293.29,-30.3424 1302.22,-24.6417 1291.68,-23.5291 1293.29,-30.3424"/>
</g>
<!-- rjack&#45;commons&#45;codec -->
<g id="node32" class="node"><title>rjack&#45;commons&#45;codec</title>
<ellipse fill="none" stroke="black" cx="1322" cy="-90" rx="94.3783" ry="18"/>
<text text-anchor="middle" x="1322" y="-85.4" font-family="Times,serif" font-size="14.00">rjack&#45;commons&#45;codec</text>
</g>
<!-- rjack&#45;httpclient&#45;3&#45;&gt;rjack&#45;commons&#45;codec -->
<g id="edge24" class="edge"><title>rjack&#45;httpclient&#45;3&#45;&gt;rjack&#45;commons&#45;codec</title>
<path fill="none" stroke="black" d="M1322,-143.697C1322,-135.983 1322,-126.712 1322,-118.112"/>
<polygon fill="black" stroke="black" points="1325.5,-118.104 1322,-108.104 1318.5,-118.104 1325.5,-118.104"/>
</g>
<!-- rjack&#45;logback -->
<g id="node34" class="node"><title>rjack&#45;logback</title>
<ellipse fill="none" stroke="black" cx="1496" cy="-90" rx="61.5727" ry="18"/>
<text text-anchor="middle" x="1496" y="-85.4" font-family="Times,serif" font-size="14.00">rjack&#45;logback</text>
</g>
<!-- rjack&#45;httpclient&#45;3&#45;&gt;rjack&#45;logback -->
<g id="edge26" class="edge"><title>rjack&#45;httpclient&#45;3&#45;&gt;rjack&#45;logback</title>
<path fill="none" stroke="black" d="M1358.9,-146.155C1386.06,-135.23 1423.09,-120.33 1451.83,-108.771"/>
<polygon fill="black" stroke="black" points="1453.26,-111.969 1461.23,-104.989 1450.64,-105.475 1453.26,-111.969"/>
</g>
<!-- rjack&#45;jetty&#45;jsp -->
<g id="node10" class="node"><title>rjack&#45;jetty&#45;jsp</title>
<ellipse fill="none" stroke="blue" cx="1496" cy="-234" rx="63.0857" ry="18"/>
<text text-anchor="middle" x="1496" y="-229.4" font-family="Times,serif" font-size="14.00">rjack&#45;jetty&#45;jsp</text>
</g>
<!-- rjack&#45;jetty -->
<g id="node35" class="node"><title>rjack&#45;jetty</title>
<ellipse fill="none" stroke="black" cx="1496" cy="-162" rx="48.4551" ry="18"/>
<text text-anchor="middle" x="1496" y="-157.4" font-family="Times,serif" font-size="14.00">rjack&#45;jetty</text>
</g>
<!-- rjack&#45;jetty&#45;jsp&#45;&gt;rjack&#45;jetty -->
<g id="edge30" class="edge"><title>rjack&#45;jetty&#45;jsp&#45;&gt;rjack&#45;jetty</title>
<path fill="none" stroke="black" d="M1496,-215.697C1496,-207.983 1496,-198.712 1496,-190.112"/>
<polygon fill="black" stroke="black" points="1499.5,-190.104 1496,-180.104 1492.5,-190.104 1499.5,-190.104"/>
</g>
<!-- rubyforge -->
<g id="node11" class="node"><title>rubyforge</title>
<ellipse fill="none" stroke="red" cx="662" cy="-18" rx="47.4419" ry="18"/>
<text text-anchor="middle" x="662" y="-13.4" font-family="Times,serif" font-size="14.00">rubyforge</text>
</g>
<!-- gravitext&#45;util&#45;&gt;hoe -->
<g id="edge8" class="edge"><title>gravitext&#45;util&#45;&gt;hoe</title>
<path fill="none" stroke="black" d="M641.946,-144.765C654.438,-134.597 670.615,-121.43 683.833,-110.671"/>
<polygon fill="black" stroke="black" points="686.075,-113.358 691.622,-104.331 681.657,-107.93 686.075,-113.358"/>
</g>
<!-- hoe&#45;&gt;rubyforge -->
<g id="edge14" class="edge"><title>hoe&#45;&gt;rubyforge</title>
<path fill="none" stroke="black" d="M697.562,-73.1159C691.96,-64.592 684.925,-53.8861 678.594,-44.2513"/>
<polygon fill="black" stroke="black" points="681.455,-42.2323 673.038,-35.7973 675.605,-46.0766 681.455,-42.2323"/>
</g>
<!-- rake -->
<g id="node25" class="node"><title>rake</title>
<ellipse fill="none" stroke="black" cx="755" cy="-18" rx="27.2554" ry="18"/>
<text text-anchor="middle" x="755" y="-13.4" font-family="Times,serif" font-size="14.00">rake</text>
</g>
<!-- hoe&#45;&gt;rake -->
<g id="edge16" class="edge"><title>hoe&#45;&gt;rake</title>
<path fill="none" stroke="black" d="M718.665,-73.1159C724.554,-64.345 731.994,-53.2637 738.606,-43.4162"/>
<polygon fill="black" stroke="black" points="741.709,-45.0745 744.377,-34.8212 735.897,-41.1724 741.709,-45.0745"/>
</g>
<!-- rjack&#45;logback&#45;&gt;rjack&#45;slf4j -->
<g id="edge32" class="edge"><title>rjack&#45;logback&#45;&gt;rjack&#45;slf4j</title>
<path fill="none" stroke="black" d="M1464.76,-74.3257C1441.46,-63.3767 1409.51,-48.3664 1384.77,-36.743"/>
<polygon fill="black" stroke="black" points="1386.21,-33.5539 1375.67,-32.4695 1383.23,-39.8895 1386.21,-33.5539"/>
</g>
<!-- rjack&#45;jetty&#45;&gt;rjack&#45;logback -->
<g id="edge28" class="edge"><title>rjack&#45;jetty&#45;&gt;rjack&#45;logback</title>
<path fill="none" stroke="black" d="M1496,-143.697C1496,-135.983 1496,-126.712 1496,-118.112"/>
<polygon fill="black" stroke="black" points="1499.5,-118.104 1496,-108.104 1492.5,-118.104 1499.5,-118.104"/>
</g>
</g>
</svg>
