<?xml version="1.0" encoding="UTF-8" standalone="no"?>
<!DOCTYPE svg PUBLIC "-//W3C//DTD SVG 1.1//EN"
 "http://www.w3.org/Graphics/SVG/1.1/DTD/svg11.dtd">
<!-- Generated by graphviz version 2.28.0 (20120525.0300)
 -->
<!-- Title: distribute&#45;partitioned Pages: 1 -->
<svg width="243pt" height="180pt"
 viewBox="0.00 0.00 243.13 180.00" xmlns="http://www.w3.org/2000/svg" xmlns:xlink="http://www.w3.org/1999/xlink">
<g id="graph1" class="graph" transform="scale(0.671642 0.671642) rotate(0) translate(4 264)">
<title>distribute&#45;partitioned</title>
<!-- database&#45;1 -->
<g id="node1" class="node"><title>database&#45;1</title>
<ellipse fill="#f7e8b5" stroke="black" cx="52" cy="-213" rx="47.2526" ry="47.2526"/>
<text text-anchor="start" x="39.5" y="-222.9" font-family="Arial" font-size="14.00">visit</text>
<text text-anchor="start" x="23" y="-208.9" font-family="Arial" font-size="14.00">database</text>
<text text-anchor="start" x="33.5" y="-194.9" font-family="Arial" font-size="14.00">part&#45;1</text>
</g>
<!-- database&#45;2 -->
<g id="node2" class="node"><title>database&#45;2</title>
<ellipse fill="#f7e8b5" stroke="black" cx="52" cy="-47" rx="47.2526" ry="47.2526"/>
<text text-anchor="start" x="39.5" y="-56.9" font-family="Arial" font-size="14.00">visit</text>
<text text-anchor="start" x="23" y="-42.9" font-family="Arial" font-size="14.00">database</text>
<text text-anchor="start" x="33.5" y="-28.9" font-family="Arial" font-size="14.00">part&#45;2</text>
</g>
<!-- exchange -->
<g id="node3" class="node"><title>exchange</title>
<polygon fill="#f7e8b5" stroke="black" points="104,-148 0,-148 0,-112 104,-112 104,-148"/>
<text text-anchor="middle" x="52" y="-125.4" font-family="Arial" font-size="14.00">exchange</text>
</g>
<!-- iudex&#45;worker&#45;1 -->
<g id="node4" class="node"><title>iudex&#45;worker&#45;1</title>
<polygon fill="#f7e8b5" stroke="black" points="354,-174 218,-174 218,-138 354,-138 354,-174"/>
<text text-anchor="middle" x="286" y="-151.4" font-family="Arial" font-size="14.00">iudex&#45;worker&#45;1</text>
</g>
<!-- iudex&#45;worker&#45;1&#45;&gt;database&#45;1 -->
<g id="edge6" class="edge"><title>iudex&#45;worker&#45;1&#45;&gt;database&#45;1</title>
<path fill="none" stroke="black" d="M209.672,-174.507C175.936,-182.796 136.944,-192.376 106.299,-199.905"/>
<polygon fill="black" stroke="black" points="210.795,-177.115 217.896,-172.487 209.459,-171.676 210.795,-177.115"/>
<polygon fill="black" stroke="black" points="105.394,-197.244 98.2935,-201.872 106.731,-202.682 105.394,-197.244"/>
<text text-anchor="middle" x="161" y="-194.4" font-family="Arial" font-size="14.00">part&#45;1</text>
</g>
<!-- iudex&#45;worker&#45;1&#45;&gt;exchange -->
<g id="edge2" class="edge"><title>iudex&#45;worker&#45;1&#45;&gt;exchange</title>
<path fill="none" stroke="black" d="M209.7,-147.561C178.115,-144.022 141.921,-139.965 112.281,-136.644"/>
<polygon fill="black" stroke="black" points="209.634,-150.371 217.896,-148.48 210.258,-144.806 209.634,-150.371"/>
<polygon fill="black" stroke="black" points="112.366,-133.836 104.104,-135.727 111.742,-139.401 112.366,-133.836"/>
<text text-anchor="middle" x="127.151" y="-145.192" font-family="Arial" font-size="14.00">other</text>
<text text-anchor="middle" x="194.849" y="-129.815" font-family="Arial" font-size="14.00">part&#45;1</text>
</g>
<!-- iudex&#45;worker&#45;2 -->
<g id="node5" class="node"><title>iudex&#45;worker&#45;2</title>
<polygon fill="#f7e8b5" stroke="black" points="354,-93 218,-93 218,-57 354,-57 354,-93"/>
<text text-anchor="middle" x="286" y="-70.4" font-family="Arial" font-size="14.00">iudex&#45;worker&#45;2</text>
</g>
<!-- iudex&#45;worker&#45;2&#45;&gt;database&#45;2 -->
<g id="edge8" class="edge"><title>iudex&#45;worker&#45;2&#45;&gt;database&#45;2</title>
<path fill="none" stroke="black" d="M209.759,-65.9192C176.385,-61.8912 137.853,-57.2408 107.343,-53.5586"/>
<polygon fill="black" stroke="black" points="209.618,-68.7224 217.896,-66.9012 210.289,-63.1628 209.618,-68.7224"/>
<polygon fill="black" stroke="black" points="107.643,-50.7746 99.365,-52.5958 106.972,-56.3343 107.643,-50.7746"/>
<text text-anchor="middle" x="161" y="-64.4" font-family="Arial" font-size="14.00">part&#45;2</text>
</g>
<!-- iudex&#45;worker&#45;2&#45;&gt;exchange -->
<g id="edge4" class="edge"><title>iudex&#45;worker&#45;2&#45;&gt;exchange</title>
<path fill="none" stroke="black" d="M209.7,-92.8514C177.98,-100.371 141.612,-108.993 111.901,-116.036"/>
<polygon fill="black" stroke="black" points="210.758,-95.4782 217.896,-90.9083 209.466,-90.0293 210.758,-95.4782"/>
<polygon fill="black" stroke="black" points="111.242,-113.315 104.104,-117.885 112.534,-118.764 111.242,-113.315"/>
<text text-anchor="middle" x="130.547" y="-118.743" font-family="Arial" font-size="14.00">other</text>
<text text-anchor="middle" x="191.453" y="-80.85" font-family="Arial" font-size="14.00">part&#45;2</text>
</g>
</g>
</svg>
