<?xml version="1.0" encoding="UTF-8" standalone="no"?>
<!DOCTYPE svg PUBLIC "-//W3C//DTD SVG 1.1//EN"
 "http://www.w3.org/Graphics/SVG/1.1/DTD/svg11.dtd">
<!-- Generated by graphviz version 2.28.0 (20120525.0300)
 -->
<!-- Title: iudex&#45;gems Pages: 1 -->
<svg width="468pt" height="263pt"
 viewBox="0.00 0.00 468.00 263.02" xmlns="http://www.w3.org/2000/svg" xmlns:xlink="http://www.w3.org/1999/xlink">
<g id="graph1" class="graph" transform="scale(0.617414 0.617414) rotate(0) translate(4 422)">
<title>iudex&#45;gems</title>
<!-- barc -->
<g id="node1" class="node"><title>barc</title>
<a xlink:href="../barc.html" xlink:title="iudex&lt;br/&gt;barc" target="_parent">
<polygon fill="#f7e8b5" stroke="#f7e8b5" points="590.5,-135.5 551.5,-135.5 539.5,-123.5 539.5,-104.5 551.5,-92.5 590.5,-92.5 602.5,-104.5 602.5,-123.5 590.5,-135.5"/>
<path fill="#f7e8b5" stroke="#f7e8b5" d="M551.5,-135.5C545.5,-135.5 539.5,-129.5 539.5,-123.5"/>
<path fill="#f7e8b5" stroke="#f7e8b5" d="M539.5,-104.5C539.5,-98.5 545.5,-92.5 551.5,-92.5"/>
<path fill="#f7e8b5" stroke="#f7e8b5" d="M590.5,-92.5C596.5,-92.5 602.5,-98.5 602.5,-104.5"/>
<path fill="#f7e8b5" stroke="#f7e8b5" d="M602.5,-123.5C602.5,-129.5 596.5,-135.5 590.5,-135.5"/>
<polyline fill="none" stroke="black" points="590.5,-135.5 551.5,-135.5 "/>
<path fill="none" stroke="black" d="M551.5,-135.5C545.5,-135.5 539.5,-129.5 539.5,-123.5"/>
<polyline fill="none" stroke="black" points="539.5,-123.5 539.5,-104.5 "/>
<path fill="none" stroke="black" d="M539.5,-104.5C539.5,-98.5 545.5,-92.5 551.5,-92.5"/>
<polyline fill="none" stroke="black" points="551.5,-92.5 590.5,-92.5 "/>
<path fill="none" stroke="black" d="M590.5,-92.5C596.5,-92.5 602.5,-98.5 602.5,-104.5"/>
<polyline fill="none" stroke="black" points="602.5,-104.5 602.5,-123.5 "/>
<path fill="none" stroke="black" d="M602.5,-123.5C602.5,-129.5 596.5,-135.5 590.5,-135.5"/>
<text text-anchor="start" x="554" y="-116.9" font-family="Arial" font-size="14.00">iudex</text>
<text text-anchor="start" x="557" y="-102.9" font-family="Arial" font-size="14.00">barc</text>
</a>
</g>
<!-- http -->
<g id="node12" class="node"><title>http</title>
<polygon fill="#f7e8b5" stroke="#f7e8b5" points="729.5,-296.5 690.5,-296.5 678.5,-284.5 678.5,-265.5 690.5,-253.5 729.5,-253.5 741.5,-265.5 741.5,-284.5 729.5,-296.5"/>
<path fill="#f7e8b5" stroke="#f7e8b5" d="M690.5,-296.5C684.5,-296.5 678.5,-290.5 678.5,-284.5"/>
<path fill="#f7e8b5" stroke="#f7e8b5" d="M678.5,-265.5C678.5,-259.5 684.5,-253.5 690.5,-253.5"/>
<path fill="#f7e8b5" stroke="#f7e8b5" d="M729.5,-253.5C735.5,-253.5 741.5,-259.5 741.5,-265.5"/>
<path fill="#f7e8b5" stroke="#f7e8b5" d="M741.5,-284.5C741.5,-290.5 735.5,-296.5 729.5,-296.5"/>
<polyline fill="none" stroke="black" points="729.5,-296.5 690.5,-296.5 "/>
<path fill="none" stroke="black" d="M690.5,-296.5C684.5,-296.5 678.5,-290.5 678.5,-284.5"/>
<polyline fill="none" stroke="black" points="678.5,-284.5 678.5,-265.5 "/>
<path fill="none" stroke="black" d="M678.5,-265.5C678.5,-259.5 684.5,-253.5 690.5,-253.5"/>
<polyline fill="none" stroke="black" points="690.5,-253.5 729.5,-253.5 "/>
<path fill="none" stroke="black" d="M729.5,-253.5C735.5,-253.5 741.5,-259.5 741.5,-265.5"/>
<polyline fill="none" stroke="black" points="741.5,-265.5 741.5,-284.5 "/>
<path fill="none" stroke="black" d="M741.5,-284.5C741.5,-290.5 735.5,-296.5 729.5,-296.5"/>
<text text-anchor="start" x="693" y="-277.9" font-family="Arial" font-size="14.00">iudex</text>
<text text-anchor="start" x="698" y="-263.9" font-family="Arial" font-size="14.00">http</text>
</g>
<!-- barc&#45;&gt;http -->
<g id="edge14" class="edge"><title>barc&#45;&gt;http</title>
<path fill="none" stroke="black" d="M602.817,-127.905C613.508,-133.71 625.047,-141.175 634,-150 661.61,-177.216 683.032,-216.619 695.785,-243.879"/>
<polygon fill="black" stroke="black" points="692.758,-245.677 700.087,-253.328 699.129,-242.776 692.758,-245.677"/>
</g>
<!-- char_detect -->
<g id="node2" class="node"><title>char_detect</title>
<polygon fill="#f7e8b5" stroke="#f7e8b5" points="359.5,-239.5 272.5,-239.5 260.5,-227.5 260.5,-208.5 272.5,-196.5 359.5,-196.5 371.5,-208.5 371.5,-227.5 359.5,-239.5"/>
<path fill="#f7e8b5" stroke="#f7e8b5" d="M272.5,-239.5C266.5,-239.5 260.5,-233.5 260.5,-227.5"/>
<path fill="#f7e8b5" stroke="#f7e8b5" d="M260.5,-208.5C260.5,-202.5 266.5,-196.5 272.5,-196.5"/>
<path fill="#f7e8b5" stroke="#f7e8b5" d="M359.5,-196.5C365.5,-196.5 371.5,-202.5 371.5,-208.5"/>
<path fill="#f7e8b5" stroke="#f7e8b5" d="M371.5,-227.5C371.5,-233.5 365.5,-239.5 359.5,-239.5"/>
<polyline fill="none" stroke="black" points="359.5,-239.5 272.5,-239.5 "/>
<path fill="none" stroke="black" d="M272.5,-239.5C266.5,-239.5 260.5,-233.5 260.5,-227.5"/>
<polyline fill="none" stroke="black" points="260.5,-227.5 260.5,-208.5 "/>
<path fill="none" stroke="black" d="M260.5,-208.5C260.5,-202.5 266.5,-196.5 272.5,-196.5"/>
<polyline fill="none" stroke="black" points="272.5,-196.5 359.5,-196.5 "/>
<path fill="none" stroke="black" d="M359.5,-196.5C365.5,-196.5 371.5,-202.5 371.5,-208.5"/>
<polyline fill="none" stroke="black" points="371.5,-208.5 371.5,-227.5 "/>
<path fill="none" stroke="black" d="M371.5,-227.5C371.5,-233.5 365.5,-239.5 359.5,-239.5"/>
<text text-anchor="start" x="299" y="-220.9" font-family="Arial" font-size="14.00">iudex</text>
<text text-anchor="start" x="275" y="-206.9" font-family="Arial" font-size="14.00">char&#45;detector</text>
</g>
<!-- core -->
<g id="node3" class="node"><title>core</title>
<polygon fill="#f7e8b5" stroke="#f7e8b5" points="459.5,-185.5 420.5,-185.5 408.5,-173.5 408.5,-154.5 420.5,-142.5 459.5,-142.5 471.5,-154.5 471.5,-173.5 459.5,-185.5"/>
<path fill="#f7e8b5" stroke="#f7e8b5" d="M420.5,-185.5C414.5,-185.5 408.5,-179.5 408.5,-173.5"/>
<path fill="#f7e8b5" stroke="#f7e8b5" d="M408.5,-154.5C408.5,-148.5 414.5,-142.5 420.5,-142.5"/>
<path fill="#f7e8b5" stroke="#f7e8b5" d="M459.5,-142.5C465.5,-142.5 471.5,-148.5 471.5,-154.5"/>
<path fill="#f7e8b5" stroke="#f7e8b5" d="M471.5,-173.5C471.5,-179.5 465.5,-185.5 459.5,-185.5"/>
<polyline fill="none" stroke="black" points="459.5,-185.5 420.5,-185.5 "/>
<path fill="none" stroke="black" d="M420.5,-185.5C414.5,-185.5 408.5,-179.5 408.5,-173.5"/>
<polyline fill="none" stroke="black" points="408.5,-173.5 408.5,-154.5 "/>
<path fill="none" stroke="black" d="M408.5,-154.5C408.5,-148.5 414.5,-142.5 420.5,-142.5"/>
<polyline fill="none" stroke="black" points="420.5,-142.5 459.5,-142.5 "/>
<path fill="none" stroke="black" d="M459.5,-142.5C465.5,-142.5 471.5,-148.5 471.5,-154.5"/>
<polyline fill="none" stroke="black" points="471.5,-154.5 471.5,-173.5 "/>
<path fill="none" stroke="black" d="M471.5,-173.5C471.5,-179.5 465.5,-185.5 459.5,-185.5"/>
<text text-anchor="start" x="423" y="-166.9" font-family="Arial" font-size="14.00">iudex</text>
<text text-anchor="start" x="426" y="-152.9" font-family="Arial" font-size="14.00">core</text>
</g>
<!-- char_detect&#45;&gt;core -->
<g id="edge16" class="edge"><title>char_detect&#45;&gt;core</title>
<path fill="none" stroke="black" d="M365.218,-196.658C376.448,-191.687 388.283,-186.449 399.107,-181.658"/>
<polygon fill="black" stroke="black" points="400.59,-184.829 408.318,-177.581 397.757,-178.428 400.59,-184.829"/>
</g>
<!-- core&#45;&gt;barc -->
<g id="edge18" class="edge"><title>core&#45;&gt;barc</title>
<path fill="none" stroke="black" d="M471.571,-152.151C488.956,-145.413 510.937,-136.893 529.715,-129.614"/>
<polygon fill="black" stroke="black" points="531.142,-132.815 539.201,-125.938 528.612,-126.288 531.142,-132.815"/>
</g>
<!-- filter -->
<g id="node5" class="node"><title>filter</title>
<polygon fill="#f7e8b5" stroke="#f7e8b5" points="590.5,-235.5 551.5,-235.5 539.5,-223.5 539.5,-204.5 551.5,-192.5 590.5,-192.5 602.5,-204.5 602.5,-223.5 590.5,-235.5"/>
<path fill="#f7e8b5" stroke="#f7e8b5" d="M551.5,-235.5C545.5,-235.5 539.5,-229.5 539.5,-223.5"/>
<path fill="#f7e8b5" stroke="#f7e8b5" d="M539.5,-204.5C539.5,-198.5 545.5,-192.5 551.5,-192.5"/>
<path fill="#f7e8b5" stroke="#f7e8b5" d="M590.5,-192.5C596.5,-192.5 602.5,-198.5 602.5,-204.5"/>
<path fill="#f7e8b5" stroke="#f7e8b5" d="M602.5,-223.5C602.5,-229.5 596.5,-235.5 590.5,-235.5"/>
<polyline fill="none" stroke="black" points="590.5,-235.5 551.5,-235.5 "/>
<path fill="none" stroke="black" d="M551.5,-235.5C545.5,-235.5 539.5,-229.5 539.5,-223.5"/>
<polyline fill="none" stroke="black" points="539.5,-223.5 539.5,-204.5 "/>
<path fill="none" stroke="black" d="M539.5,-204.5C539.5,-198.5 545.5,-192.5 551.5,-192.5"/>
<polyline fill="none" stroke="black" points="551.5,-192.5 590.5,-192.5 "/>
<path fill="none" stroke="black" d="M590.5,-192.5C596.5,-192.5 602.5,-198.5 602.5,-204.5"/>
<polyline fill="none" stroke="black" points="602.5,-204.5 602.5,-223.5 "/>
<path fill="none" stroke="black" d="M602.5,-223.5C602.5,-229.5 596.5,-235.5 590.5,-235.5"/>
<text text-anchor="start" x="554" y="-216.9" font-family="Arial" font-size="14.00">iudex</text>
<text text-anchor="start" x="557.5" y="-202.9" font-family="Arial" font-size="14.00">filter</text>
</g>
<!-- core&#45;&gt;filter -->
<g id="edge20" class="edge"><title>core&#45;&gt;filter</title>
<path fill="none" stroke="black" d="M471.571,-175.849C488.956,-182.587 510.937,-191.107 529.715,-198.386"/>
<polygon fill="black" stroke="black" points="528.612,-201.712 539.201,-202.062 531.142,-195.185 528.612,-201.712"/>
</g>
<!-- core&#45;&gt;http -->
<g id="edge22" class="edge"><title>core&#45;&gt;http</title>
<path fill="none" stroke="black" d="M471.822,-160.313C511.749,-157.01 582.348,-156.292 634,-184 659.459,-197.657 679.64,-223.909 692.625,-244.721"/>
<polygon fill="black" stroke="black" points="689.77,-246.764 697.911,-253.544 695.775,-243.167 689.77,-246.764"/>
</g>
<!-- da -->
<g id="node4" class="node"><title>da</title>
<a xlink:href="../da/index.html" xlink:title="iudex&lt;br/&gt;da" target="_parent">
<polygon fill="#f7e8b5" stroke="#f7e8b5" points="335.5,-178.5 296.5,-178.5 284.5,-166.5 284.5,-147.5 296.5,-135.5 335.5,-135.5 347.5,-147.5 347.5,-166.5 335.5,-178.5"/>
<path fill="#f7e8b5" stroke="#f7e8b5" d="M296.5,-178.5C290.5,-178.5 284.5,-172.5 284.5,-166.5"/>
<path fill="#f7e8b5" stroke="#f7e8b5" d="M284.5,-147.5C284.5,-141.5 290.5,-135.5 296.5,-135.5"/>
<path fill="#f7e8b5" stroke="#f7e8b5" d="M335.5,-135.5C341.5,-135.5 347.5,-141.5 347.5,-147.5"/>
<path fill="#f7e8b5" stroke="#f7e8b5" d="M347.5,-166.5C347.5,-172.5 341.5,-178.5 335.5,-178.5"/>
<polyline fill="none" stroke="black" points="335.5,-178.5 296.5,-178.5 "/>
<path fill="none" stroke="black" d="M296.5,-178.5C290.5,-178.5 284.5,-172.5 284.5,-166.5"/>
<polyline fill="none" stroke="black" points="284.5,-166.5 284.5,-147.5 "/>
<path fill="none" stroke="black" d="M284.5,-147.5C284.5,-141.5 290.5,-135.5 296.5,-135.5"/>
<polyline fill="none" stroke="black" points="296.5,-135.5 335.5,-135.5 "/>
<path fill="none" stroke="black" d="M335.5,-135.5C341.5,-135.5 347.5,-141.5 347.5,-147.5"/>
<polyline fill="none" stroke="black" points="347.5,-147.5 347.5,-166.5 "/>
<path fill="none" stroke="black" d="M347.5,-166.5C347.5,-172.5 341.5,-178.5 335.5,-178.5"/>
<text text-anchor="start" x="299" y="-159.9" font-family="Arial" font-size="14.00">iudex</text>
<text text-anchor="start" x="308" y="-145.9" font-family="Arial" font-size="14.00">da</text>
</a>
</g>
<!-- da&#45;&gt;core -->
<g id="edge24" class="edge"><title>da&#45;&gt;core</title>
<path fill="none" stroke="black" d="M347.786,-158.766C362.957,-159.637 381.464,-160.699 397.833,-161.638"/>
<polygon fill="black" stroke="black" points="398.04,-165.156 408.224,-162.234 398.441,-158.167 398.04,-165.156"/>
</g>
<!-- html -->
<g id="node6" class="node"><title>html</title>
<polygon fill="#f7e8b5" stroke="#f7e8b5" points="335.5,-117.5 296.5,-117.5 284.5,-105.5 284.5,-86.5 296.5,-74.5 335.5,-74.5 347.5,-86.5 347.5,-105.5 335.5,-117.5"/>
<path fill="#f7e8b5" stroke="#f7e8b5" d="M296.5,-117.5C290.5,-117.5 284.5,-111.5 284.5,-105.5"/>
<path fill="#f7e8b5" stroke="#f7e8b5" d="M284.5,-86.5C284.5,-80.5 290.5,-74.5 296.5,-74.5"/>
<path fill="#f7e8b5" stroke="#f7e8b5" d="M335.5,-74.5C341.5,-74.5 347.5,-80.5 347.5,-86.5"/>
<path fill="#f7e8b5" stroke="#f7e8b5" d="M347.5,-105.5C347.5,-111.5 341.5,-117.5 335.5,-117.5"/>
<polyline fill="none" stroke="black" points="335.5,-117.5 296.5,-117.5 "/>
<path fill="none" stroke="black" d="M296.5,-117.5C290.5,-117.5 284.5,-111.5 284.5,-105.5"/>
<polyline fill="none" stroke="black" points="284.5,-105.5 284.5,-86.5 "/>
<path fill="none" stroke="black" d="M284.5,-86.5C284.5,-80.5 290.5,-74.5 296.5,-74.5"/>
<polyline fill="none" stroke="black" points="296.5,-74.5 335.5,-74.5 "/>
<path fill="none" stroke="black" d="M335.5,-74.5C341.5,-74.5 347.5,-80.5 347.5,-86.5"/>
<polyline fill="none" stroke="black" points="347.5,-86.5 347.5,-105.5 "/>
<path fill="none" stroke="black" d="M347.5,-105.5C347.5,-111.5 341.5,-117.5 335.5,-117.5"/>
<text text-anchor="start" x="299" y="-98.9" font-family="Arial" font-size="14.00">iudex</text>
<text text-anchor="start" x="302.5" y="-84.9" font-family="Arial" font-size="14.00">html</text>
</g>
<!-- html&#45;&gt;core -->
<g id="edge26" class="edge"><title>html&#45;&gt;core</title>
<path fill="none" stroke="black" d="M347.596,-112.572C355.556,-116.915 364.111,-121.612 372,-126 380.94,-130.973 390.52,-136.367 399.559,-141.487"/>
<polygon fill="black" stroke="black" points="397.949,-144.598 408.374,-146.489 401.404,-138.509 397.949,-144.598"/>
</g>
<!-- rome -->
<g id="node7" class="node"><title>rome</title>
<polygon fill="#f7e8b5" stroke="#f7e8b5" points="196.5,-277.5 157.5,-277.5 145.5,-265.5 145.5,-246.5 157.5,-234.5 196.5,-234.5 208.5,-246.5 208.5,-265.5 196.5,-277.5"/>
<path fill="#f7e8b5" stroke="#f7e8b5" d="M157.5,-277.5C151.5,-277.5 145.5,-271.5 145.5,-265.5"/>
<path fill="#f7e8b5" stroke="#f7e8b5" d="M145.5,-246.5C145.5,-240.5 151.5,-234.5 157.5,-234.5"/>
<path fill="#f7e8b5" stroke="#f7e8b5" d="M196.5,-234.5C202.5,-234.5 208.5,-240.5 208.5,-246.5"/>
<path fill="#f7e8b5" stroke="#f7e8b5" d="M208.5,-265.5C208.5,-271.5 202.5,-277.5 196.5,-277.5"/>
<polyline fill="none" stroke="black" points="196.5,-277.5 157.5,-277.5 "/>
<path fill="none" stroke="black" d="M157.5,-277.5C151.5,-277.5 145.5,-271.5 145.5,-265.5"/>
<polyline fill="none" stroke="black" points="145.5,-265.5 145.5,-246.5 "/>
<path fill="none" stroke="black" d="M145.5,-246.5C145.5,-240.5 151.5,-234.5 157.5,-234.5"/>
<polyline fill="none" stroke="black" points="157.5,-234.5 196.5,-234.5 "/>
<path fill="none" stroke="black" d="M196.5,-234.5C202.5,-234.5 208.5,-240.5 208.5,-246.5"/>
<polyline fill="none" stroke="black" points="208.5,-246.5 208.5,-265.5 "/>
<path fill="none" stroke="black" d="M208.5,-265.5C208.5,-271.5 202.5,-277.5 196.5,-277.5"/>
<text text-anchor="start" x="160" y="-258.9" font-family="Arial" font-size="14.00">iudex</text>
<text text-anchor="start" x="161" y="-244.9" font-family="Arial" font-size="14.00">rome</text>
</g>
<!-- rome&#45;&gt;core -->
<g id="edge28" class="edge"><title>rome&#45;&gt;core</title>
<path fill="none" stroke="black" d="M208.517,-262.174C248.458,-268.658 319.539,-274.606 372,-248 394.836,-236.418 412.445,-213.108 423.868,-193.975"/>
<polygon fill="black" stroke="black" points="426.922,-195.685 428.825,-185.262 420.838,-192.223 426.922,-195.685"/>
</g>
<!-- simhash -->
<g id="node8" class="node"><title>simhash</title>
<polygon fill="#f7e8b5" stroke="#f7e8b5" points="205.5,-117.5 148.5,-117.5 136.5,-105.5 136.5,-86.5 148.5,-74.5 205.5,-74.5 217.5,-86.5 217.5,-105.5 205.5,-117.5"/>
<path fill="#f7e8b5" stroke="#f7e8b5" d="M148.5,-117.5C142.5,-117.5 136.5,-111.5 136.5,-105.5"/>
<path fill="#f7e8b5" stroke="#f7e8b5" d="M136.5,-86.5C136.5,-80.5 142.5,-74.5 148.5,-74.5"/>
<path fill="#f7e8b5" stroke="#f7e8b5" d="M205.5,-74.5C211.5,-74.5 217.5,-80.5 217.5,-86.5"/>
<path fill="#f7e8b5" stroke="#f7e8b5" d="M217.5,-105.5C217.5,-111.5 211.5,-117.5 205.5,-117.5"/>
<polyline fill="none" stroke="black" points="205.5,-117.5 148.5,-117.5 "/>
<path fill="none" stroke="black" d="M148.5,-117.5C142.5,-117.5 136.5,-111.5 136.5,-105.5"/>
<polyline fill="none" stroke="black" points="136.5,-105.5 136.5,-86.5 "/>
<path fill="none" stroke="black" d="M136.5,-86.5C136.5,-80.5 142.5,-74.5 148.5,-74.5"/>
<polyline fill="none" stroke="black" points="148.5,-74.5 205.5,-74.5 "/>
<path fill="none" stroke="black" d="M205.5,-74.5C211.5,-74.5 217.5,-80.5 217.5,-86.5"/>
<polyline fill="none" stroke="black" points="217.5,-86.5 217.5,-105.5 "/>
<path fill="none" stroke="black" d="M217.5,-105.5C217.5,-111.5 211.5,-117.5 205.5,-117.5"/>
<text text-anchor="start" x="160" y="-98.9" font-family="Arial" font-size="14.00">iudex</text>
<text text-anchor="start" x="151" y="-84.9" font-family="Arial" font-size="14.00">simhash</text>
</g>
<!-- simhash&#45;&gt;core -->
<g id="edge30" class="edge"><title>simhash&#45;&gt;core</title>
<path fill="none" stroke="black" d="M217.519,-76.0534C258.47,-58.3917 323.193,-39.0973 372,-65 399.068,-79.3655 417.201,-110.095 427.701,-133.532"/>
<polygon fill="black" stroke="black" points="424.481,-134.904 431.609,-142.742 430.925,-132.169 424.481,-134.904"/>
</g>
<!-- simhash&#45;&gt;html -->
<g id="edge32" class="edge"><title>simhash&#45;&gt;html</title>
<path fill="none" stroke="black" d="M217.626,-96C235.33,-96 256.184,-96 274.042,-96"/>
<polygon fill="black" stroke="black" points="274.164,-99.5001 284.164,-96 274.164,-92.5001 274.164,-99.5001"/>
</g>
<!-- worker -->
<g id="node9" class="node"><title>worker</title>
<polygon fill="#f7e8b5" stroke="#f7e8b5" points="71,-277.5 23,-277.5 11,-265.5 11,-246.5 23,-234.5 71,-234.5 83,-246.5 83,-265.5 71,-277.5"/>
<path fill="#f7e8b5" stroke="#f7e8b5" d="M23,-277.5C17,-277.5 11,-271.5 11,-265.5"/>
<path fill="#f7e8b5" stroke="#f7e8b5" d="M11,-246.5C11,-240.5 17,-234.5 23,-234.5"/>
<path fill="#f7e8b5" stroke="#f7e8b5" d="M71,-234.5C77,-234.5 83,-240.5 83,-246.5"/>
<path fill="#f7e8b5" stroke="#f7e8b5" d="M83,-265.5C83,-271.5 77,-277.5 71,-277.5"/>
<polyline fill="none" stroke="black" points="71,-277.5 23,-277.5 "/>
<path fill="none" stroke="black" d="M23,-277.5C17,-277.5 11,-271.5 11,-265.5"/>
<polyline fill="none" stroke="black" points="11,-265.5 11,-246.5 "/>
<path fill="none" stroke="black" d="M11,-246.5C11,-240.5 17,-234.5 23,-234.5"/>
<polyline fill="none" stroke="black" points="23,-234.5 71,-234.5 "/>
<path fill="none" stroke="black" d="M71,-234.5C77,-234.5 83,-240.5 83,-246.5"/>
<polyline fill="none" stroke="black" points="83,-246.5 83,-265.5 "/>
<path fill="none" stroke="black" d="M83,-265.5C83,-271.5 77,-277.5 71,-277.5"/>
<text text-anchor="start" x="30" y="-258.9" font-family="Arial" font-size="14.00">iudex</text>
<text text-anchor="start" x="25.5" y="-244.9" font-family="Arial" font-size="14.00">worker</text>
</g>
<!-- worker&#45;&gt;char_detect -->
<g id="edge34" class="edge"><title>worker&#45;&gt;char_detect</title>
<path fill="none" stroke="black" d="M83.2362,-240.41C97.4751,-234.829 114.242,-229.145 130,-226 169.311,-218.155 214.217,-216.054 249.941,-215.963"/>
<polygon fill="black" stroke="black" points="250.228,-219.464 260.238,-215.991 250.248,-212.464 250.228,-219.464"/>
</g>
<!-- worker&#45;&gt;da -->
<g id="edge36" class="edge"><title>worker&#45;&gt;da</title>
<path fill="none" stroke="black" d="M83.157,-235.102C97.385,-227.187 114.165,-218.522 130,-212 178.143,-192.169 236.003,-176.149 274.045,-166.619"/>
<polygon fill="black" stroke="black" points="275.356,-169.901 284.225,-164.106 273.678,-163.105 275.356,-169.901"/>
</g>
<!-- worker&#45;&gt;rome -->
<g id="edge44" class="edge"><title>worker&#45;&gt;rome</title>
<path fill="none" stroke="black" d="M83.3154,-256C99.3708,-256 118.463,-256 135.135,-256"/>
<polygon fill="black" stroke="black" points="135.154,-259.5 145.154,-256 135.154,-252.5 135.154,-259.5"/>
</g>
<!-- worker&#45;&gt;simhash -->
<g id="edge46" class="edge"><title>worker&#45;&gt;simhash</title>
<path fill="none" stroke="black" d="M63.5668,-234.529C79.7297,-212.469 105.966,-177.309 130,-148 136.174,-140.471 143.032,-132.516 149.527,-125.153"/>
<polygon fill="black" stroke="black" points="152.353,-127.242 156.384,-117.444 147.122,-122.59 152.353,-127.242"/>
</g>
<!-- httpclient_3 -->
<g id="node13" class="node"><title>httpclient_3</title>
<polygon fill="#f7e8b5" stroke="#f7e8b5" points="607.5,-296.5 534.5,-296.5 522.5,-284.5 522.5,-265.5 534.5,-253.5 607.5,-253.5 619.5,-265.5 619.5,-284.5 607.5,-296.5"/>
<path fill="#f7e8b5" stroke="#f7e8b5" d="M534.5,-296.5C528.5,-296.5 522.5,-290.5 522.5,-284.5"/>
<path fill="#f7e8b5" stroke="#f7e8b5" d="M522.5,-265.5C522.5,-259.5 528.5,-253.5 534.5,-253.5"/>
<path fill="#f7e8b5" stroke="#f7e8b5" d="M607.5,-253.5C613.5,-253.5 619.5,-259.5 619.5,-265.5"/>
<path fill="#f7e8b5" stroke="#f7e8b5" d="M619.5,-284.5C619.5,-290.5 613.5,-296.5 607.5,-296.5"/>
<polyline fill="none" stroke="black" points="607.5,-296.5 534.5,-296.5 "/>
<path fill="none" stroke="black" d="M534.5,-296.5C528.5,-296.5 522.5,-290.5 522.5,-284.5"/>
<polyline fill="none" stroke="black" points="522.5,-284.5 522.5,-265.5 "/>
<path fill="none" stroke="black" d="M522.5,-265.5C522.5,-259.5 528.5,-253.5 534.5,-253.5"/>
<polyline fill="none" stroke="black" points="534.5,-253.5 607.5,-253.5 "/>
<path fill="none" stroke="black" d="M607.5,-253.5C613.5,-253.5 619.5,-259.5 619.5,-265.5"/>
<polyline fill="none" stroke="black" points="619.5,-265.5 619.5,-284.5 "/>
<path fill="none" stroke="black" d="M619.5,-284.5C619.5,-290.5 613.5,-296.5 607.5,-296.5"/>
<text text-anchor="start" x="554" y="-277.9" font-family="Arial" font-size="14.00">iudex</text>
<text text-anchor="start" x="537" y="-263.9" font-family="Arial" font-size="14.00">httpclient&#45;3</text>
</g>
<!-- worker&#45;&gt;httpclient_3 -->
<g id="edge38" class="edge"><title>worker&#45;&gt;httpclient_3</title>
<path fill="none" stroke="black" d="M83.17,-271.942C97.3998,-277.571 114.178,-283.197 130,-286 265.385,-309.988 427.827,-294.821 512.406,-283.69"/>
<polygon fill="black" stroke="black" points="512.883,-287.157 522.327,-282.355 511.95,-280.219 512.883,-287.157"/>
</g>
<!-- jetty_httpclient -->
<g id="node14" class="node"><title>jetty_httpclient</title>
<polygon fill="#f7e8b5" stroke="#f7e8b5" points="617,-418.5 525,-418.5 513,-406.5 513,-387.5 525,-375.5 617,-375.5 629,-387.5 629,-406.5 617,-418.5"/>
<path fill="#f7e8b5" stroke="#f7e8b5" d="M525,-418.5C519,-418.5 513,-412.5 513,-406.5"/>
<path fill="#f7e8b5" stroke="#f7e8b5" d="M513,-387.5C513,-381.5 519,-375.5 525,-375.5"/>
<path fill="#f7e8b5" stroke="#f7e8b5" d="M617,-375.5C623,-375.5 629,-381.5 629,-387.5"/>
<path fill="#f7e8b5" stroke="#f7e8b5" d="M629,-406.5C629,-412.5 623,-418.5 617,-418.5"/>
<polyline fill="none" stroke="black" points="617,-418.5 525,-418.5 "/>
<path fill="none" stroke="black" d="M525,-418.5C519,-418.5 513,-412.5 513,-406.5"/>
<polyline fill="none" stroke="black" points="513,-406.5 513,-387.5 "/>
<path fill="none" stroke="black" d="M513,-387.5C513,-381.5 519,-375.5 525,-375.5"/>
<polyline fill="none" stroke="black" points="525,-375.5 617,-375.5 "/>
<path fill="none" stroke="black" d="M617,-375.5C623,-375.5 629,-381.5 629,-387.5"/>
<polyline fill="none" stroke="black" points="629,-387.5 629,-406.5 "/>
<path fill="none" stroke="black" d="M629,-406.5C629,-412.5 623,-418.5 617,-418.5"/>
<text text-anchor="start" x="554" y="-399.9" font-family="Arial" font-size="14.00">iudex</text>
<text text-anchor="start" x="527.5" y="-385.9" font-family="Arial" font-size="14.00">jetty&#45;httpclient</text>
</g>
<!-- worker&#45;&gt;jetty_httpclient -->
<g id="edge40" class="edge"><title>worker&#45;&gt;jetty_httpclient</title>
<path fill="none" stroke="black" stroke-dasharray="5,2" d="M65.8903,-277.497C81.1359,-294.302 104.569,-316.793 130,-329 252.118,-387.617 413.234,-397.847 502.729,-398.468"/>
<polygon fill="black" stroke="black" points="502.74,-401.968 512.751,-398.499 502.762,-394.968 502.74,-401.968"/>
</g>
<!-- async_httpclient -->
<g id="node15" class="node"><title>async_httpclient</title>
<polygon fill="#f7e8b5" stroke="#f7e8b5" points="621.5,-357.5 520.5,-357.5 508.5,-345.5 508.5,-326.5 520.5,-314.5 621.5,-314.5 633.5,-326.5 633.5,-345.5 621.5,-357.5"/>
<path fill="#f7e8b5" stroke="#f7e8b5" d="M520.5,-357.5C514.5,-357.5 508.5,-351.5 508.5,-345.5"/>
<path fill="#f7e8b5" stroke="#f7e8b5" d="M508.5,-326.5C508.5,-320.5 514.5,-314.5 520.5,-314.5"/>
<path fill="#f7e8b5" stroke="#f7e8b5" d="M621.5,-314.5C627.5,-314.5 633.5,-320.5 633.5,-326.5"/>
<path fill="#f7e8b5" stroke="#f7e8b5" d="M633.5,-345.5C633.5,-351.5 627.5,-357.5 621.5,-357.5"/>
<polyline fill="none" stroke="black" points="621.5,-357.5 520.5,-357.5 "/>
<path fill="none" stroke="black" d="M520.5,-357.5C514.5,-357.5 508.5,-351.5 508.5,-345.5"/>
<polyline fill="none" stroke="black" points="508.5,-345.5 508.5,-326.5 "/>
<path fill="none" stroke="black" d="M508.5,-326.5C508.5,-320.5 514.5,-314.5 520.5,-314.5"/>
<polyline fill="none" stroke="black" points="520.5,-314.5 621.5,-314.5 "/>
<path fill="none" stroke="black" d="M621.5,-314.5C627.5,-314.5 633.5,-320.5 633.5,-326.5"/>
<polyline fill="none" stroke="black" points="633.5,-326.5 633.5,-345.5 "/>
<path fill="none" stroke="black" d="M633.5,-345.5C633.5,-351.5 627.5,-357.5 621.5,-357.5"/>
<text text-anchor="start" x="554" y="-338.9" font-family="Arial" font-size="14.00">iudex</text>
<text text-anchor="start" x="523" y="-324.9" font-family="Arial" font-size="14.00">async&#45;httpclient</text>
</g>
<!-- worker&#45;&gt;async_httpclient -->
<g id="edge42" class="edge"><title>worker&#45;&gt;async_httpclient</title>
<path fill="none" stroke="black" stroke-dasharray="5,2" d="M76.3887,-277.489C91.4901,-287.708 110.856,-298.984 130,-305 254.911,-344.254 409.243,-344.901 497.975,-341.002"/>
<polygon fill="black" stroke="black" points="498.377,-344.487 508.201,-340.52 498.047,-337.495 498.377,-344.487"/>
</g>
<!-- bf_protobuf -->
<g id="node10" class="node"><title>bf_protobuf</title>
<polygon fill="#f7e8b5" stroke="#f7e8b5" points="211.5,-56.5 142.5,-56.5 130.5,-44.5 130.5,-11.5 142.5,0.5 211.5,0.5 223.5,-11.5 223.5,-44.5 211.5,-56.5"/>
<path fill="#f7e8b5" stroke="#f7e8b5" d="M142.5,-56.5C136.5,-56.5 130.5,-50.5 130.5,-44.5"/>
<path fill="#f7e8b5" stroke="#f7e8b5" d="M130.5,-11.5C130.5,-5.5 136.5,0.5 142.5,0.5"/>
<path fill="#f7e8b5" stroke="#f7e8b5" d="M211.5,0.5C217.5,0.5 223.5,-5.5 223.5,-11.5"/>
<path fill="#f7e8b5" stroke="#f7e8b5" d="M223.5,-44.5C223.5,-50.5 217.5,-56.5 211.5,-56.5"/>
<polyline fill="none" stroke="black" points="211.5,-56.5 142.5,-56.5 "/>
<path fill="none" stroke="black" d="M142.5,-56.5C136.5,-56.5 130.5,-50.5 130.5,-44.5"/>
<polyline fill="none" stroke="black" points="130.5,-44.5 130.5,-11.5 "/>
<path fill="none" stroke="black" d="M130.5,-11.5C130.5,-5.5 136.5,0.5 142.5,0.5"/>
<polyline fill="none" stroke="black" points="142.5,0.5 211.5,0.5 "/>
<path fill="none" stroke="black" d="M211.5,0.5C217.5,0.5 223.5,-5.5 223.5,-11.5"/>
<polyline fill="none" stroke="black" points="223.5,-11.5 223.5,-44.5 "/>
<path fill="none" stroke="black" d="M223.5,-44.5C223.5,-50.5 217.5,-56.5 211.5,-56.5"/>
<text text-anchor="start" x="160" y="-37.9" font-family="Arial" font-size="14.00">iudex</text>
<text text-anchor="start" x="145" y="-23.9" font-family="Arial" font-size="14.00">brutefuzzy</text>
<text text-anchor="start" x="151.5" y="-9.9" font-family="Arial" font-size="14.00">protobuf</text>
</g>
<!-- bf_service -->
<g id="node11" class="node"><title>bf_service</title>
<polygon fill="#f7e8b5" stroke="#f7e8b5" points="81.5,-90.5 12.5,-90.5 0.5,-78.5 0.5,-45.5 12.5,-33.5 81.5,-33.5 93.5,-45.5 93.5,-78.5 81.5,-90.5"/>
<path fill="#f7e8b5" stroke="#f7e8b5" d="M12.5,-90.5C6.5,-90.5 0.5,-84.5 0.5,-78.5"/>
<path fill="#f7e8b5" stroke="#f7e8b5" d="M0.5,-45.5C0.5,-39.5 6.5,-33.5 12.5,-33.5"/>
<path fill="#f7e8b5" stroke="#f7e8b5" d="M81.5,-33.5C87.5,-33.5 93.5,-39.5 93.5,-45.5"/>
<path fill="#f7e8b5" stroke="#f7e8b5" d="M93.5,-78.5C93.5,-84.5 87.5,-90.5 81.5,-90.5"/>
<polyline fill="none" stroke="black" points="81.5,-90.5 12.5,-90.5 "/>
<path fill="none" stroke="black" d="M12.5,-90.5C6.5,-90.5 0.5,-84.5 0.5,-78.5"/>
<polyline fill="none" stroke="black" points="0.5,-78.5 0.5,-45.5 "/>
<path fill="none" stroke="black" d="M0.5,-45.5C0.5,-39.5 6.5,-33.5 12.5,-33.5"/>
<polyline fill="none" stroke="black" points="12.5,-33.5 81.5,-33.5 "/>
<path fill="none" stroke="black" d="M81.5,-33.5C87.5,-33.5 93.5,-39.5 93.5,-45.5"/>
<polyline fill="none" stroke="black" points="93.5,-45.5 93.5,-78.5 "/>
<path fill="none" stroke="black" d="M93.5,-78.5C93.5,-84.5 87.5,-90.5 81.5,-90.5"/>
<text text-anchor="start" x="30" y="-71.9" font-family="Arial" font-size="14.00">iudex</text>
<text text-anchor="start" x="15" y="-57.9" font-family="Arial" font-size="14.00">brutefuzzy</text>
<text text-anchor="start" x="24.5" y="-43.9" font-family="Arial" font-size="14.00">service</text>
</g>
<!-- bf_service&#45;&gt;simhash -->
<g id="edge48" class="edge"><title>bf_service&#45;&gt;simhash</title>
<path fill="none" stroke="black" d="M93.8494,-74.1787C104.504,-77.0089 115.891,-80.0335 126.688,-82.9015"/>
<polygon fill="black" stroke="black" points="125.836,-86.2966 136.4,-85.4812 127.634,-79.5312 125.836,-86.2966"/>
</g>
<!-- bf_service&#45;&gt;bf_protobuf -->
<g id="edge50" class="edge"><title>bf_service&#45;&gt;bf_protobuf</title>
<path fill="none" stroke="black" d="M93.8494,-49.8213C102.501,-47.5231 111.636,-45.0968 120.545,-42.7302"/>
<polygon fill="black" stroke="black" points="121.704,-46.0437 130.471,-40.0937 119.907,-39.2783 121.704,-46.0437"/>
</g>
<!-- httpclient_3&#45;&gt;http -->
<g id="edge2" class="edge"><title>httpclient_3&#45;&gt;http</title>
<path fill="none" stroke="black" d="M619.531,-275C635.355,-275 652.831,-275 668.107,-275"/>
<polygon fill="black" stroke="black" points="668.284,-278.5 678.284,-275 668.284,-271.5 668.284,-278.5"/>
</g>
<!-- http_test -->
<g id="node16" class="node"><title>http_test</title>
<polygon fill="#f7e8b5" stroke="#f7e8b5" points="738,-357.5 682,-357.5 670,-345.5 670,-326.5 682,-314.5 738,-314.5 750,-326.5 750,-345.5 738,-357.5"/>
<path fill="#f7e8b5" stroke="#f7e8b5" d="M682,-357.5C676,-357.5 670,-351.5 670,-345.5"/>
<path fill="#f7e8b5" stroke="#f7e8b5" d="M670,-326.5C670,-320.5 676,-314.5 682,-314.5"/>
<path fill="#f7e8b5" stroke="#f7e8b5" d="M738,-314.5C744,-314.5 750,-320.5 750,-326.5"/>
<path fill="#f7e8b5" stroke="#f7e8b5" d="M750,-345.5C750,-351.5 744,-357.5 738,-357.5"/>
<polyline fill="none" stroke="black" points="738,-357.5 682,-357.5 "/>
<path fill="none" stroke="black" d="M682,-357.5C676,-357.5 670,-351.5 670,-345.5"/>
<polyline fill="none" stroke="black" points="670,-345.5 670,-326.5 "/>
<path fill="none" stroke="black" d="M670,-326.5C670,-320.5 676,-314.5 682,-314.5"/>
<polyline fill="none" stroke="black" points="682,-314.5 738,-314.5 "/>
<path fill="none" stroke="black" d="M738,-314.5C744,-314.5 750,-320.5 750,-326.5"/>
<polyline fill="none" stroke="black" points="750,-326.5 750,-345.5 "/>
<path fill="none" stroke="black" d="M750,-345.5C750,-351.5 744,-357.5 738,-357.5"/>
<text text-anchor="start" x="693" y="-338.9" font-family="Arial" font-size="14.00">iudex</text>
<text text-anchor="start" x="684.5" y="-324.9" font-family="Arial" font-size="14.00">http&#45;test</text>
</g>
<!-- httpclient_3&#45;&gt;http_test -->
<g id="edge4" class="edge"><title>httpclient_3&#45;&gt;http_test</title>
<path fill="none" stroke="black" stroke-dasharray="5,2" d="M619.531,-296.164C632.715,-302.034 647.046,-308.415 660.296,-314.314"/>
<polygon fill="black" stroke="black" points="659.162,-317.641 669.721,-318.511 662.01,-311.246 659.162,-317.641"/>
</g>
<!-- jetty_httpclient&#45;&gt;http -->
<g id="edge6" class="edge"><title>jetty_httpclient&#45;&gt;http</title>
<path fill="none" stroke="black" d="M621.455,-375.632C625.933,-372.725 630.203,-369.516 634,-366 656.818,-344.87 649.499,-329.384 670,-306 670.713,-305.187 671.449,-304.38 672.204,-303.579"/>
<polygon fill="black" stroke="black" points="674.667,-306.066 679.42,-296.597 669.8,-301.035 674.667,-306.066"/>
</g>
<!-- jetty_httpclient&#45;&gt;http_test -->
<g id="edge8" class="edge"><title>jetty_httpclient&#45;&gt;http_test</title>
<path fill="none" stroke="black" stroke-dasharray="5,2" d="M619.916,-375.665C633.079,-369.804 647.361,-363.445 660.553,-357.571"/>
<polygon fill="black" stroke="black" points="662.224,-360.658 669.936,-353.393 659.377,-354.264 662.224,-360.658"/>
</g>
<!-- async_httpclient&#45;&gt;http -->
<g id="edge10" class="edge"><title>async_httpclient&#45;&gt;http</title>
<path fill="none" stroke="black" d="M619.916,-314.665C636.019,-307.495 653.794,-299.581 669.204,-292.719"/>
<polygon fill="black" stroke="black" points="670.745,-295.864 678.457,-288.599 667.898,-289.47 670.745,-295.864"/>
</g>
<!-- async_httpclient&#45;&gt;http_test -->
<g id="edge12" class="edge"><title>async_httpclient&#45;&gt;http_test</title>
<path fill="none" stroke="black" stroke-dasharray="5,2" d="M633.687,-336C642.371,-336 651.204,-336 659.618,-336"/>
<polygon fill="black" stroke="black" points="659.635,-339.5 669.635,-336 659.635,-332.5 659.635,-339.5"/>
</g>
</g>
</svg>
