<?xml version="1.0" encoding="UTF-8" standalone="no"?>
<!DOCTYPE svg PUBLIC "-//W3C//DTD SVG 1.1//EN"
 "http://www.w3.org/Graphics/SVG/1.1/DTD/svg11.dtd">
<!-- Generated by graphviz version 2.28.0 (20120525.0300)
 -->
<!-- Title: iudex&#45;gems Pages: 1 -->
<svg width="374pt" height="229pt"
 viewBox="0.00 0.00 374.00 229.00" xmlns="http://www.w3.org/2000/svg" xmlns:xlink="http://www.w3.org/1999/xlink">
<g id="graph1" class="graph" transform="scale(1 1) rotate(0) translate(4 225)">
<title>iudex&#45;gems</title>
<!-- order -->
<g id="node1" class="node"><title>order</title>
<polygon fill="#f7e8b5" stroke="black" points="0,-80 0,-220 98,-220 98,-80 0,-80"/>
<text text-anchor="middle" x="49" y="-207" font-family="Arial" font-size="10.00">order</text>
<polyline fill="none" stroke="black" points="0,-200 98,-200 "/>
<text text-anchor="middle" x="49" y="-187" font-family="Arial" font-size="10.00">URL: http://www/2</text>
<polyline fill="none" stroke="black" points="0,-180 98,-180 "/>
<text text-anchor="middle" x="49" y="-167" font-family="Arial" font-size="10.00">PRIORITY: 1.5</text>
<polyline fill="none" stroke="black" points="0,-160 98,-160 "/>
<text text-anchor="middle" x="49" y="-147" font-family="Arial" font-size="10.00">STATUS: 301</text>
<polyline fill="none" stroke="black" points="0,-140 98,-140 "/>
<text text-anchor="middle" x="49" y="-127" font-family="Arial" font-size="10.00">REVISIT_ORDER</text>
<polyline fill="none" stroke="black" points="0,-120 98,-120 "/>
<text text-anchor="middle" x="49" y="-107" font-family="Arial" font-size="10.00">LAST</text>
<polyline fill="none" stroke="black" points="0,-100 98,-100 "/>
<text text-anchor="middle" x="49" y="-87" font-family="Arial" font-size="10.00">REFERER</text>
</g>
<!-- referer -->
<g id="node2" class="node"><title>referer</title>
<polygon fill="#f7e8b5" stroke="black" points="134.5,-0 134.5,-100 231.5,-100 231.5,-0 134.5,-0"/>
<text text-anchor="middle" x="183" y="-87" font-family="Arial" font-size="10.00">referer</text>
<polyline fill="none" stroke="black" points="134.5,-80 231.5,-80 "/>
<text text-anchor="middle" x="183" y="-67" font-family="Arial" font-size="10.00">URL: http://www/1</text>
<polyline fill="none" stroke="black" points="134.5,-60 231.5,-60 "/>
<text text-anchor="middle" x="183" y="-47" font-family="Arial" font-size="10.00">PRIORITY: 1.0</text>
<polyline fill="none" stroke="black" points="134.5,-40 231.5,-40 "/>
<text text-anchor="middle" x="183" y="-27" font-family="Arial" font-size="10.00">STATUS: 302</text>
<polyline fill="none" stroke="black" points="134.5,-20 231.5,-20 "/>
<text text-anchor="middle" x="183" y="-7" font-family="Arial" font-size="10.00">REFERENT</text>
</g>
<!-- order&#45;&gt;referer -->
<g id="edge2" class="edge"><title>order:rf&#45;&gt;referer:t</title>
<path fill="none" stroke="black" d="M98,-90C110.875,-90 115.98,-90 125.819,-90"/>
<polygon fill="black" stroke="black" points="126,-92.8001 134,-90 126,-87.2001 126,-92.8001"/>
</g>
<!-- order&#45;&gt;referer -->
<g id="edge4" class="edge"><title>order:l&#45;&gt;referer:t</title>
<path fill="none" stroke="black" d="M98,-110C113.157,-110 115.347,-96.2842 126.046,-91.5694"/>
<polygon fill="black" stroke="black" points="126.693,-94.2957 134,-90 125.609,-88.8017 126.693,-94.2957"/>
</g>
<!-- revisit -->
<g id="node3" class="node"><title>revisit</title>
<polygon fill="#f7e8b5" stroke="black" points="268.5,-79 268.5,-179 365.5,-179 365.5,-79 268.5,-79"/>
<text text-anchor="middle" x="317" y="-166" font-family="Arial" font-size="10.00">revisit</text>
<polyline fill="none" stroke="black" points="268.5,-159 365.5,-159 "/>
<text text-anchor="middle" x="317" y="-146" font-family="Arial" font-size="10.00">URL: http://www/3</text>
<polyline fill="none" stroke="black" points="268.5,-139 365.5,-139 "/>
<text text-anchor="middle" x="317" y="-126" font-family="Arial" font-size="10.00">PRIORITY: 2.0</text>
<polyline fill="none" stroke="black" points="268.5,-119 365.5,-119 "/>
<text text-anchor="middle" x="317" y="-106" font-family="Arial" font-size="10.00">LAST</text>
<polyline fill="none" stroke="black" points="268.5,-99 365.5,-99 "/>
<text text-anchor="middle" x="317" y="-86" font-family="Arial" font-size="10.00">REFERER</text>
</g>
<!-- order&#45;&gt;revisit -->
<g id="edge6" class="edge"><title>order:ro&#45;&gt;revisit:t</title>
<path fill="none" stroke="#2844a1" stroke-width="2" d="M98,-130C115.167,-130 117.49,-139.294 134,-144 189.532,-159.828 205.901,-168.195 259.771,-168.945"/>
<polygon fill="#2844a1" stroke="#2844a1" points="259.981,-171.746 268,-169 260.019,-166.146 259.981,-171.746"/>
</g>
<!-- order&#45;&gt;revisit -->
<g id="edge10" class="edge"><title>order:t&#45;&gt;revisit:l</title>
<path fill="none" stroke="black" d="M105.979,-208.86C127.402,-201.702 110.143,-162.648 134,-144 182.496,-106.092 206.446,-109 268,-109"/>
<polygon fill="black" stroke="black" points="105.524,-206.097 98,-210 106.316,-211.64 105.524,-206.097"/>
</g>
<!-- referer&#45;&gt;revisit -->
<g id="edge8" class="edge"><title>referer:t&#45;&gt;revisit:rf</title>
<path fill="none" stroke="black" stroke-dasharray="5,2" d="M240.182,-89.9005C250.022,-89.6475 255.12,-89 268,-89"/>
<polygon fill="black" stroke="black" points="239.965,-87.1028 232,-90 240.034,-92.7024 239.965,-87.1028"/>
</g>
<!-- referer&#45;&gt;revisit -->
<g id="edge12" class="edge"><title>referer:rt&#45;&gt;revisit:t</title>
<path fill="none" stroke="black" stroke-dasharray="5,2" d="M232,-10C301.484,-10 204.174,-156.225 259.975,-168.219"/>
<polygon fill="black" stroke="black" points="259.766,-171.012 268,-169 260.309,-165.439 259.766,-171.012"/>
</g>
</g>
</svg>
